<svg width="32" height="30" viewBox="0 0 32 30" fill="none" xmlns="http://www.w3.org/2000/svg">
<ellipse cx="15.5556" cy="15" rx="15.5556" ry="15" fill="url(#paint0_linear)"/>
<path d="M13.929 8.04123C14.3745 8.04126 17.4936 7.94843 17.4936 8.04126V15.2794C17.4936 17.2096 21.0584 8.04131 21.5039 8.04126H25.0686C26.4054 8.04127 21.9495 15.7619 21.9495 15.7619C21.9495 15.7619 24.6231 19.6222 25.5142 21.0698C26.4054 22.5175 25.9598 23 25.0686 23H21.9495C21.363 23 20.6128 21.0698 19.276 19.1397C17.9392 17.2095 17.4936 18.1746 17.4936 18.1746V23H15.2657C15.2657 23 14 23 12.5 21.5C12.5 21.5 11.2554 20.1048 8.1363 14.7968C5.01719 9.48889 4.12612 8.04118 5.90836 8.04126L9.47307 8.04123C10.81 8.04124 13.5 16.2895 13.5 15.5C13.5 14.7105 13.4834 12.3841 13.4834 10.454C13.4833 8.52384 13.4834 8.0412 13.929 8.04123Z" stroke="#74510C" stroke-width="1.5"/>
<defs>
<linearGradient id="paint0_linear" x1="15.5556" y1="0" x2="15.5556" y2="30" gradientUnits="userSpaceOnUse">
<stop stop-color="#FFF7B1"/>
<stop offset="1" stop-color="#FFF500"/>
</linearGradient>
</defs>
</svg>
