<svg width="32" height="30" viewBox="0 0 32 30" fill="none" xmlns="http://www.w3.org/2000/svg">
<ellipse cx="15.5556" cy="15" rx="15.5556" ry="15" fill="url(#paint0_linear)"/>
<path d="M19.1946 14.4721C19.0853 12.3359 17.5259 11.0516 15.6472 11.0516H15.5763C13.3954 11.0516 12.1893 12.7899 12.1893 14.7632C12.1893 16.9715 13.648 18.3668 15.5621 18.3668C17.6905 18.3668 19.0967 16.7812 19.1988 14.9074L19.1946 14.4721ZM15.5805 9.13882C17.023 9.16137 18.3977 9.76425 19.4032 10.8152C19.4032 10.3237 19.7281 9.95034 20.1793 9.95034H20.2928C21.0023 9.95034 21.1442 10.6292 21.1442 10.844V18.4691C21.1292 18.5709 21.1458 18.6749 21.1917 18.7666C21.2376 18.8583 21.3105 18.9332 21.4004 18.9808C21.4902 19.0284 21.5924 19.0464 21.6927 19.0322C21.793 19.0179 21.8865 18.9723 21.9601 18.9015C23.1648 17.6432 24.6064 12.4325 21.2109 9.41413C18.0481 6.61058 13.7998 7.07471 11.5423 8.65595C9.13999 10.3395 7.60329 14.0627 9.10026 17.5596C10.7278 21.375 15.3833 22.5123 18.1502 21.3779C19.5521 20.8013 20.1992 22.7271 18.7433 23.3555C16.5454 24.3068 10.4255 24.2117 7.56639 19.1754C5.62955 15.7838 5.73313 9.8062 10.8555 6.71003C14.7746 4.34035 19.9367 4.99619 23.0583 8.29559C26.3148 11.755 26.1247 18.2226 22.9477 20.7379C21.5089 21.8809 19.3705 20.7696 19.3847 19.1033L19.3691 18.5585C18.8725 19.0655 18.2821 19.4679 17.632 19.7424C16.9818 20.017 16.2846 20.1584 15.5805 20.1585C12.71 20.1585 10.1886 17.5927 10.1886 14.6811C10.1886 11.7363 12.7143 9.14026 15.5805 9.14026" fill="#74510C"/>
<defs>
<linearGradient id="paint0_linear" x1="15.5556" y1="0" x2="15.5556" y2="30" gradientUnits="userSpaceOnUse">
<stop stop-color="#FFF7B1"/>
<stop offset="1" stop-color="#FFF500"/>
</linearGradient>
</defs>
</svg>
