<svg width="32" height="30" viewBox="0 0 32 30" fill="none" xmlns="http://www.w3.org/2000/svg">
<ellipse cx="16.4445" cy="15" rx="15.5556" ry="15" fill="url(#paint0_linear)"/>
<path d="M24.6878 5.44408L5.36163 12.8783C4.30471 13.1895 4.33839 14.2502 5.11946 14.5076L9.96143 16.0472L11.8155 21.818C12.04 22.4485 12.2244 22.688 12.6094 22.6929C12.9943 22.6978 13.1675 22.5479 13.5877 22.1715C14.0801 21.7023 14.8291 20.9643 16.0111 19.7961L21.0487 23.5759C21.9758 24.0957 22.6526 23.8269 22.8755 22.701L26.0399 6.82568C26.3719 5.44734 25.5748 5.03677 24.6878 5.44408ZM10.7216 15.6871L21.732 8.66999C22.2741 8.30015 22.4441 8.71235 22.2003 8.99584L13.0616 17.3506L12.5933 21.515L10.7216 15.6871Z" fill="#74510C"/>
<defs>
<linearGradient id="paint0_linear" x1="16.4445" y1="0" x2="16.4445" y2="30" gradientUnits="userSpaceOnUse">
<stop stop-color="#FFF7B1"/>
<stop offset="1" stop-color="#FFF500"/>
</linearGradient>
</defs>
</svg>
