<svg width="212" height="199" viewBox="0 0 212 199" fill="none" xmlns="http://www.w3.org/2000/svg">
<g filter="url(#filter0_d)">
<path d="M130.129 63.1426L206 109.004L81.6358 185L6 140.182L130.129 63.1426Z" fill="#FFCF25"/>
<path opacity="0.32" d="M37.9686 159.125L41.6563 148.977L36.0612 144.589L24.0698 150.161C29.2135 154.098 32.4879 155.733 37.9686 159.125Z" fill="url(#paint0_linear)"/>
<path opacity="0.32" d="M62.2056 158.842L78.0246 146.097L67.095 139.118L48.4722 149.764C53.6222 153.674 56.7186 155.444 62.2056 158.842Z" fill="url(#paint1_linear)"/>
<path opacity="0.32" d="M112.307 129.98L138.96 113.943L131.331 107.389L101.772 124.071C106.954 127.981 106.827 126.581 112.307 129.98Z" fill="url(#paint2_linear)"/>
<path d="M144.975 56.1503L140.951 48.4248L138.63 44.4544L147.601 39.8447L153.368 52.3481L144.975 56.1503Z" fill="#007F68"/>
<path d="M135.61 54.7303L138.153 51.7289C138.36 51.5269 138.546 51.3013 138.706 51.056C138.852 50.653 138.91 50.2208 138.878 49.7909C138.924 49.1713 139.037 48.5594 139.215 47.9672C139.264 47.8 139.367 47.6566 139.507 47.5625C139.646 47.4684 139.812 47.4295 139.976 47.4529C140.14 47.4763 140.291 47.5604 140.402 47.6903C140.513 47.8202 140.576 47.9874 140.582 48.1623C140.582 48.5459 140.582 48.9295 140.544 49.3131L141.18 48.7276C142.019 50.3427 142.883 51.9443 143.799 53.5055C143.297 53.5392 142.788 53.5459 142.279 53.5055C140.456 54.6561 138.838 56.1367 137.498 57.8797C137.425 57.9739 137.329 58.0452 137.22 58.086C137.111 58.1268 136.994 58.1355 136.881 58.1113C136.768 58.0871 136.664 58.0309 136.579 57.9486C136.494 57.8663 136.431 57.7611 136.398 57.6442C136.326 57.6282 136.255 57.6033 136.188 57.5701H136.157C136 57.4682 135.887 57.3062 135.841 57.1182C135.795 56.9301 135.819 56.7304 135.909 56.5607V56.5271C135.939 56.4463 135.985 56.3733 136.045 56.3129C136.104 56.2526 136.175 56.2063 136.252 56.1771C136.392 56.0089 136.532 55.8272 136.659 55.6455L136.576 55.7465C135.991 56.4732 135.012 55.4302 135.61 54.7303Z" fill="#FBC76F"/>
<path d="M140.823 52.3952C141.096 51.9965 141.277 51.5355 141.351 51.0493C141.322 50.5534 141.141 50.081 140.836 49.7034C140.721 49.5217 140.995 49.3535 141.109 49.5352C141.445 49.963 141.641 50.494 141.669 51.0493C141.604 51.6162 141.407 52.1571 141.097 52.624C141.082 52.643 141.065 52.6589 141.045 52.6707C141.025 52.6825 141.003 52.69 140.98 52.6928C140.957 52.6956 140.934 52.6937 140.912 52.6871C140.89 52.6805 140.87 52.6693 140.852 52.6543C140.834 52.6393 140.819 52.6207 140.808 52.5995C140.797 52.5784 140.789 52.5551 140.787 52.531C140.784 52.507 140.786 52.4826 140.792 52.4593C140.798 52.436 140.809 52.4142 140.823 52.3952Z" fill="#007058"/>
<path d="M113.598 5.24187V64.0711C113.595 65.0021 113.358 65.9155 112.911 66.7174C112.464 67.5193 111.823 68.1807 111.055 68.6337L20.6235 122.772C19.87 123.223 19.0183 123.456 18.1532 123.45C17.288 123.443 16.4395 123.197 15.6922 122.735C14.9449 122.274 14.3249 121.613 13.8938 120.819C13.4628 120.025 13.2357 119.126 13.2354 118.21V62.3954C13.2354 61.4878 13.4581 60.5958 13.8816 59.8067C14.3051 59.0175 14.915 58.3582 15.6514 57.8934L106.108 0.739846C106.86 0.265317 107.717 0.0101383 108.592 0.000295914C109.467 -0.00954652 110.33 0.226299 111.091 0.683815C111.852 1.14133 112.485 1.80418 112.925 2.60485C113.366 3.40552 113.598 4.31541 113.598 5.24187Z" fill="#112E7C"/>
<path d="M95.6618 50.6392C96.056 50.7401 96.4502 50.8545 96.838 50.9689C96.5684 50.7534 96.3848 50.4389 96.323 50.0874C96.2945 49.9676 96.2998 49.8416 96.3382 49.7249C96.3766 49.6083 96.4464 49.5061 96.539 49.431C96.6317 49.3558 96.7431 49.311 96.8595 49.3021C96.9759 49.2932 97.0922 49.3205 97.1941 49.3808C98.2495 49.9461 99.3092 50.5024 100.373 51.0497C100.373 50.9622 100.335 50.8815 100.316 50.794C100.149 50.2727 100.086 49.7204 100.131 49.1722C100.36 48.23 101.168 48.7482 101.498 49.4952C101.944 50.4979 102.045 51.5679 102.891 52.3552C103.391 52.7 103.954 52.9293 104.544 53.0282C105.142 53.2099 105.739 53.3781 106.337 53.5396C106.457 53.5806 106.563 53.6609 106.637 53.7692C106.712 53.8774 106.752 54.0079 106.752 54.1419C106.752 54.2759 106.712 54.4064 106.637 54.5146C106.563 54.6228 106.457 54.7032 106.337 54.7442C106.423 54.8023 106.493 54.8836 106.54 54.9798C106.587 55.0759 106.609 55.1834 106.604 55.2915C106.599 55.3995 106.566 55.5042 106.511 55.5948C106.455 55.6854 106.377 55.7588 106.286 55.8074C106.553 56.2583 106.242 56.9986 105.65 56.7563C104.25 56.1582 102.798 55.7074 101.314 55.4104C99.856 55.3252 98.4 55.1973 96.9461 55.0268C96.2022 54.9393 96.1768 53.6809 96.9461 53.7751H97.0987L95.7889 53.5396C95.1531 53.4252 95.2803 52.1937 95.9479 52.3081H96.1068L96.5392 52.3754L95.9034 52.1601C95.5219 52.0187 95.1658 51.9245 94.9687 51.4871C94.9287 51.3796 94.9172 51.2626 94.9355 51.1487C94.9538 51.0348 95.0012 50.9284 95.0727 50.841C95.1441 50.7537 95.2367 50.6887 95.3406 50.6531C95.4444 50.6175 95.5555 50.6127 95.6618 50.6392Z" fill="#FBC76F"/>
<path d="M100.367 51.7227C100.38 51.692 100.403 51.6673 100.432 51.653C100.461 51.6387 100.493 51.6358 100.524 51.6447C100.555 51.6536 100.581 51.6738 100.599 51.7017C100.617 51.7296 100.625 51.7633 100.621 51.7967C100.518 52.1926 100.523 52.6114 100.636 53.0044C100.748 53.3974 100.964 53.7487 101.257 54.0174C101.384 54.1386 101.2 54.3337 101.073 54.2126C100.747 53.909 100.508 53.5147 100.383 53.0746C100.258 52.6344 100.253 52.166 100.367 51.7227Z" fill="#007058"/>
<path d="M96.7553 50.7538C97.7133 51.023 98.6585 51.3325 99.591 51.6825C99.75 51.743 99.6801 52.0122 99.5211 51.9516C98.5886 51.6017 97.6433 51.2922 96.6854 51.023C96.6564 51.0091 96.6331 50.9847 96.6196 50.9543C96.6061 50.9238 96.6033 50.8892 96.6117 50.8568C96.6201 50.8243 96.6392 50.7961 96.6656 50.7773C96.6919 50.7584 96.7237 50.7501 96.7553 50.7538Z" fill="#007058"/>
<path d="M96.0942 52.1734L99.1142 52.6647C99.2796 52.6647 99.2096 52.9608 99.0443 52.9339L96.0242 52.4426C95.8271 52.3955 95.9289 52.1465 96.0942 52.1734Z" fill="#007058"/>
<path d="M96.6346 53.6001C97.4484 53.6539 98.2623 53.692 99.0761 53.7145C99.2478 53.7145 99.2478 53.9971 99.0761 53.9904C98.2623 53.9635 97.4484 53.9253 96.6346 53.876C96.4629 53.8692 96.4629 53.5866 96.6346 53.6001Z" fill="#007058"/>
<path d="M133.899 104.266C133.899 104.266 133.976 108.351 134.427 108.977C134.878 109.603 138.928 111.891 139.157 112.934C139.386 113.977 138.668 115.464 136.735 114.906C134.802 114.347 130.161 111.177 130.161 111.177V102.328" fill="#363942"/>
<path d="M118.398 108.923L117.902 113.358C117.902 113.358 119.676 120.195 118.964 121.023C118.252 121.85 115.696 122.752 114.704 121.023C113.712 119.293 115.13 112.907 115.13 112.907L115.2 108.095" fill="#363942"/>
<path d="M127.706 61.9985C127.706 61.9985 132.723 83.5329 132.952 86.8976C133.181 90.2623 134.681 106.292 134.681 106.292C134.681 106.292 129.913 108.533 126.696 107.402L124.152 87.1264L121.367 65.8545C121.367 65.8545 126.511 60.4709 127.706 61.9985Z" fill="#8CC63F"/>
<path d="M118.081 67.0927C114.539 83.0012 114.119 95.0133 112.314 108.923C112.314 108.923 119.994 111.891 121.686 109.017C122.83 94.8451 123.758 80.6324 124.184 66.4062L118.081 67.0927Z" fill="#8CC63F"/>
<path d="M103.997 50.2351C107.227 51.5338 111.055 52.7115 113.687 52.3481C116.991 51.8756 120.235 51.0227 123.364 49.8044C123.79 49.6563 128.381 47.7855 130.078 49.4006C131.776 51.0157 131.35 56.2176 131.35 56.2176L137.549 50.5379C139.851 51.4127 140.728 53.9026 140.976 56.4195C140.874 56.5271 140.785 56.6213 140.741 56.6752C140.317 57.2315 139.867 57.781 139.393 58.3239C137.358 60.7398 135.031 63.5325 132.043 64.5823C130.862 64.9435 129.599 64.8603 128.47 64.3468C127.586 63.9969 126.282 62.8528 125.29 63.2297C125.043 63.3239 124.807 63.5191 124.54 63.4854C123.828 63.3912 122.868 62.1866 122.2 61.8165C120.344 60.7936 118.163 60.6388 116.109 60.5312C113.873 60.4509 111.646 60.1922 109.446 59.7573C108.81 59.616 101.944 57.7384 101.816 58.0682C103.126 55.1678 103.457 53.4248 103.997 50.2351Z" fill="#FF7F5C"/>
<path d="M128.145 45.3632C128.597 47.6377 128.222 50.7871 125.92 51.1438C122.957 51.6081 122.219 49.4749 122.378 46.8504C122.506 44.7642 123.529 41.5072 126.193 42.4493C126.846 42.715 127.379 43.2351 127.681 43.9029C127.896 44.3657 128.052 44.8568 128.145 45.3632Z" fill="#FBC76F"/>
<path d="M128.311 45.868C128.909 45.5442 129.404 45.0406 129.733 44.4206C130.062 43.8005 130.211 43.0914 130.161 42.3821C130.034 40.9891 128.756 39.2058 127.274 39.872C126.27 40.3229 126.543 40.3565 126.543 40.3565C126.307 40.0632 126.003 39.8404 125.661 39.7105C125.318 39.5806 124.949 39.5481 124.591 39.6163C123.186 39.7442 122.945 40.6526 122.945 40.6526C122.945 40.6526 121.349 41.2179 120.929 42.2879C120.446 43.5127 121.565 47.1802 122.061 48.2099C122.557 49.2395 122.887 47.1466 123.065 46.3121C123.127 45.9746 123.267 45.6586 123.472 45.3921C123.678 45.1256 123.942 44.9169 124.242 44.7846C125.106 44.5356 125.513 45.3498 126.219 45.693C126.534 45.8832 126.885 45.9974 127.246 46.0276C127.608 46.0579 127.971 46.0034 128.311 45.868Z" fill="#081641"/>
<path d="M122.722 67.9876C121.135 68.0041 119.56 67.7003 118.08 67.0925L117.769 56.6753L129.633 62.5636C129.633 62.5636 129.188 65.0872 128.679 67.3886C126.743 67.96 124.725 68.1627 122.722 67.9876Z" fill="#FF7F5C"/>
<path d="M81.1018 69.0036C81.1018 69.0036 81.9983 66.0763 81.922 64.8111C81.8457 63.546 81.1845 61.7088 81.922 61.3253C82.6595 60.9417 83.5624 63.6133 83.5624 63.6133C83.5624 63.6133 85.8068 58.6469 86.4744 58.9632C86.6837 59.0985 86.8579 59.2868 86.9811 59.5113C87.1043 59.7357 87.1727 59.9891 87.1801 60.2485C87.1801 60.2485 87.8986 59.0036 88.172 59.5218C88.3152 60.0266 88.3152 60.5647 88.172 61.0695C88.172 61.0695 88.8078 61.1907 88.9159 61.6483C89.024 62.1059 87.9749 63.9767 87.9749 63.9767C88.1309 63.9998 88.2746 64.0795 88.3813 64.2023C88.4879 64.325 88.5511 64.4831 88.5599 64.6496C88.598 65.2284 84.3381 69.7237 84.3381 69.7237" fill="#FBC76F"/>
<path d="M69.8923 68.2502C69.8923 68.2502 73.6372 71.5275 75.0869 74.0376C76.5365 76.5477 81.2797 67.4292 81.2797 67.4292C81.2797 67.4292 84.5795 68.5799 85.6286 69.051C86.6777 69.5221 80.2942 84.9931 75.888 84.4615C71.4819 83.9299 71.6408 83.0147 71.6408 83.0147" fill="#0096DF"/>
<path d="M72.0352 132.14C71.9589 132.49 71.1133 136.527 72.0352 137.846C72.9571 139.165 74.6102 140.02 75.8501 141.15C76.4859 141.743 78.991 145.276 77.0772 145.659C75.7483 145.922 71.7682 144.603 69.2822 142.671C66.7962 140.74 65.0668 140.37 64.965 139.354C64.8633 138.337 66.491 130.161 66.491 130.161" fill="#363942"/>
<path d="M70.2359 138.27C70.3567 136.453 70.4457 134.428 70.452 133.371C70.1391 134.982 70.0662 136.635 70.2359 138.27Z" fill="#363942"/>
<path d="M58.6449 139.879C58.6449 139.879 59.8657 143.445 60.6414 144.28C61.417 145.114 64.6088 148.546 63.9094 150.242C63.21 151.938 57.7103 150.538 56.3496 148.163C54.989 145.787 54.2833 145.76 53.8064 144.798C53.3295 143.836 52.7637 137.961 52.7637 137.961" fill="#363942"/>
<path d="M71.3992 90.0805C71.3992 90.0805 72.9633 133.297 71.698 134.286C70.4327 135.276 65.8613 136.736 63.5914 134.959L65.4989 116.251L60.2216 142.53C60.2216 142.53 53.8636 143.62 51.8925 141.063C51.5111 140.565 52.0324 138.452 52.096 137.9C52.3694 135.404 52.6937 132.907 53.0179 130.417C53.8953 123.755 54.8363 117.099 55.7901 110.451C56.1249 108.104 56.464 105.76 56.8073 103.418C57.3224 99.8786 57.9645 96.0159 59.7194 92.8799C60.9274 90.6996 62.6123 87.0118 64.9966 86.0293" fill="#FF7F5C"/>
<path d="M59.8085 92.8193C63.8395 93.5394 67.9214 93.0414 71.4565 90.7601C72.0033 84.145 72.423 77.5299 71.749 70.8879C71.7434 70.8365 71.7434 70.7845 71.749 70.7331C71.3506 69.7429 70.707 68.885 69.8861 68.2499C67.8388 66.7896 64.4944 67.503 62.5107 68.6066C62.0348 68.8811 61.5891 69.2106 61.1818 69.5891C59.001 77.1531 59.8848 85.0131 59.8085 92.8193Z" fill="#0096DF"/>
<path d="M67.5843 65.1275L63.9475 64.3267L63.6423 68.573C63.6423 68.573 66.3827 71.5407 69.0849 71.1302L68.3155 67.5905C67.9844 66.8014 67.7391 65.9751 67.5843 65.1275Z" fill="#FCBB5B"/>
<path d="M67.6672 65.5244C66.4786 64.9632 65.2294 64.5587 63.9477 64.3198L63.8523 66.6415C63.8523 66.6415 66.5736 68.7545 68.1885 67.2539C67.9713 66.6931 67.7969 66.1147 67.6672 65.5244Z" fill="#DB9231"/>
<path d="M70.2103 60.5109C70.2103 60.5109 72.6327 58.9564 72.1177 57.5297C71.6027 56.1031 69.7588 55.7195 69.7588 55.7195C69.7588 55.7195 69.46 53.9025 68.0676 53.7007C66.6752 53.4988 64.2527 54.6966 64.2527 54.6966C64.2527 54.6966 62.1609 54.488 61.417 55.733C60.6731 56.9779 60.9465 59.1986 60.9465 59.1986C60.9465 59.1986 62.695 64.7976 63.4898 64.9389C64.2845 65.0802 66.1983 63.021 66.1983 63.021" fill="#0D2F35"/>
<path d="M70.2423 58.7483C70.2423 58.7483 70.8145 66.1507 67.8326 66.6554C64.8506 67.1601 63.5854 62.8398 63.5854 62.8398C63.5854 62.8398 61.7797 61.0632 62.9114 60.6594C64.0432 60.2557 64.183 60.9286 64.183 60.9286C64.183 60.9286 63.0704 58.2368 64.2403 58.2368C65.4102 58.2368 68.7799 60.2691 70.2423 58.7483Z" fill="#FBC76F"/>
<path d="M67.2157 98.3644C65.5381 111.927 63.178 125.385 60.1455 138.681C60.0502 139.098 60.6478 139.354 60.7432 138.91C63.7915 125.554 66.1643 112.035 67.8515 98.4115C67.9215 97.9808 67.2857 97.9337 67.2157 98.3644Z" fill="#363942"/>
<path d="M63.6489 67.375C63.6489 67.375 65.0731 68.7882 66.0077 68.8824L67.451 69.7169L68.6463 71.0628V69.2189C68.6463 69.2189 68.2903 67.5769 68.3475 67.5836C68.4047 67.5903 69.6191 69.6967 69.6191 69.6967L70.8144 71.803L69.0787 71.6213L68.3284 72.9672C68.3284 72.9672 64.0176 70.9483 62.5044 68.6132L63.6489 67.375Z" fill="white"/>
<path d="M86.9828 59.9593C86.2029 61.3545 85.4633 62.77 84.7639 64.2056C84.6749 64.3873 84.9355 64.5555 85.0245 64.3671C85.7282 62.927 86.4678 61.5116 87.2435 60.1208C87.2573 60.0848 87.2584 60.0448 87.2466 60.008C87.2348 59.9712 87.2109 59.9402 87.1792 59.9206C87.1476 59.9009 87.1103 59.8941 87.0742 59.9012C87.0381 59.9083 87.0057 59.9289 86.9828 59.9593Z" fill="#204A51"/>
<path d="M87.9621 60.9351L85.9339 64.8584C85.8385 65.0401 86.1055 65.2016 86.1945 65.0199L88.2228 61.0966C88.3181 60.9149 88.0575 60.7534 87.9621 60.9351Z" fill="#204A51"/>
<path d="M87.8159 63.9229C87.4129 64.416 87.0573 64.9503 86.7542 65.5178C86.7403 65.5538 86.7392 65.5938 86.751 65.6306C86.7628 65.6674 86.7868 65.6984 86.8184 65.7181C86.8501 65.7377 86.8874 65.7446 86.9235 65.7375C86.9595 65.7303 86.992 65.7097 87.0148 65.6793C87.3029 65.1337 87.6415 64.6197 88.0258 64.145C88.1593 63.9902 87.9495 63.7614 87.8159 63.9229Z" fill="#204A51"/>
<path d="M83.8613 64.0781C83.6896 63.9772 83.5307 64.2598 83.7087 64.354C84.1808 64.6678 84.5618 65.1135 84.8097 65.6419C85.0576 66.1703 85.1629 66.7609 85.1138 67.3486C85.1138 67.3915 85.1299 67.4326 85.1585 67.4628C85.1871 67.4931 85.226 67.5102 85.2664 67.5102C85.3069 67.5102 85.3457 67.4931 85.3743 67.4628C85.4029 67.4326 85.419 67.3915 85.419 67.3486C85.4694 66.7045 85.3506 66.0581 85.0757 65.481C84.8008 64.9038 84.3805 64.4183 83.8613 64.0781Z" fill="#204A51"/>
<path d="M61.188 69.5825C59.6778 70.6083 58.4532 72.0415 57.6402 73.7346C56.3686 76.4264 52.9289 88.7481 57.0044 90.5045C61.0799 92.2609 68.1438 88.2703 68.1438 88.2703L67.7178 81.7225L61.614 82.6512" fill="#0096DF"/>
<path d="M69.0468 76.5472C68.9959 76.7558 67.1775 88.7612 67.1775 88.7612L74.3621 86.7424L75.8881 74.4678L69.0468 76.5472Z" fill="#FF7F5C"/>
<path d="M66.2173 82.4424C66.2173 82.4424 67.4889 79.0036 68.1247 79.2122C68.7605 79.4209 68.5825 81.1773 68.5825 81.1773C68.5825 81.1773 71.8315 79.4949 72.6962 80.2621C73.5609 81.0292 71.4246 83.001 70.7888 83.4182C70.1529 83.8354 66.4589 85.3159 66.4589 85.3159L66.2173 82.4424Z" fill="#FBC76F"/>
<path d="M59.8086 90.9487C61.9235 90.4438 64.0118 89.8216 66.065 89.0847C66.065 89.0847 66.6308 85.6459 66.6563 85.7199C66.6817 85.794 66.58 90.1345 66.3256 90.4306C66.0713 90.7267 59.815 92.7792 59.815 92.7792L59.8086 90.9487Z" fill="#363942"/>
<path d="M169.765 21.9446C171.673 27.7118 169.664 33.9029 165.226 35.7602C160.788 37.6176 155.625 34.4615 153.686 28.6943C151.747 22.9271 153.787 16.736 158.225 14.8786C162.663 13.0213 167.833 16.1774 169.765 21.9446Z" fill="#007F68"/>
<path d="M168.411 22.5165C170.319 28.2836 168.309 34.4748 163.871 36.3321C159.434 38.1895 154.271 35.0266 152.338 29.2594C150.405 23.4923 152.414 17.3011 156.865 15.4438C161.316 13.5865 166.478 16.7291 168.411 22.5165Z" fill="#007F68"/>
<path d="M167.038 23.0954C168.64 27.8666 166.955 32.9877 163.28 34.5355C159.605 36.0833 155.332 33.4588 153.743 28.6809C152.153 23.9029 153.826 18.7885 157.501 17.2407C161.176 15.6929 165.429 18.3242 167.038 23.0954Z" fill="white"/>
<path d="M160.165 25.6527L157.679 29.4481C157.475 29.7644 157.907 30.121 158.111 29.8249L160.597 26.0295C160.8 25.7132 160.368 25.3364 160.165 25.6527Z" fill="#007F68"/>
<path d="M160.044 19.7105V25.5584C160.044 25.6477 160.077 25.7332 160.137 25.7963C160.196 25.8594 160.277 25.8949 160.362 25.8949C160.446 25.8949 160.527 25.8594 160.586 25.7963C160.646 25.7332 160.68 25.6477 160.68 25.5584V19.7105C160.68 19.6213 160.646 19.5357 160.586 19.4726C160.527 19.4095 160.446 19.374 160.362 19.374C160.277 19.374 160.196 19.4095 160.137 19.4726C160.077 19.5357 160.044 19.6213 160.044 19.7105Z" fill="#007F68"/>
<path d="M187.892 24.3198V84.717L203.755 94.7506V34.1449L187.892 24.3198Z" fill="#112E7C"/>
<path d="M33.9121 130.175C31.4341 133.537 30.2241 137.753 30.5169 142.005C30.9683 148.91 34.6433 150.915 34.6433 150.915L39.0176 151.171C39.0176 151.171 44.2186 149.374 43.5382 140.404C42.9024 131.972 40.3083 129.993 40.3083 129.993" fill="#112E7C"/>
<path d="M37.1357 131.379C38.9125 131.379 40.3528 130.84 40.3528 130.175C40.3528 129.51 38.9125 128.97 37.1357 128.97C35.3588 128.97 33.9185 129.51 33.9185 130.175C33.9185 130.84 35.3588 131.379 37.1357 131.379Z" fill="#003B94"/>
<path d="M37.1357 151.386C38.9125 151.386 40.3528 150.846 40.3528 150.181C40.3528 149.516 38.9125 148.977 37.1357 148.977C35.3588 148.977 33.9185 149.516 33.9185 150.181C33.9185 150.846 35.3588 151.386 37.1357 151.386Z" fill="#112E7C"/>
<path d="M35.8131 130.538L31.9156 106.904C31.8329 106.386 31.089 106.608 31.1717 107.12L35.0692 130.78C35.1582 131.272 35.8958 131.05 35.8131 130.538Z" fill="#007F68"/>
<path d="M36.5188 130.619C36.6364 130.595 36.7573 130.595 36.8748 130.619C37.0293 130.661 37.1687 130.75 37.2754 130.875C37.5848 124.266 37.6399 117.654 37.4407 111.036C37.4407 110.511 36.6587 110.511 36.6714 111.036C36.8706 117.568 36.8197 124.096 36.5188 130.619Z" fill="#007F68"/>
<path d="M45.2805 107.658C42.3764 115.082 39.8632 122.671 37.7525 130.39C37.7373 130.49 37.7575 130.593 37.8093 130.678C37.8611 130.763 37.9408 130.825 38.0331 130.851C38.1254 130.878 38.2237 130.868 38.3092 130.822C38.3947 130.777 38.4614 130.7 38.4964 130.606C40.6071 122.887 43.1203 115.298 46.0244 107.873C46.2342 107.395 45.4648 107.18 45.2805 107.658Z" fill="#007F68"/>
<path d="M32.7485 116.635C32.7485 116.635 32.3289 116.581 30.4914 114.535C28.6539 112.489 30.9746 110.948 29.9128 108.647C28.851 106.345 30.3515 103.317 30.6885 101.016C30.8952 102.629 31.4476 104.171 32.3034 105.524C33.6895 107.624 34.4652 109.522 34.319 112.187C34.22 113.865 33.9514 115.528 33.5178 117.146" fill="#007F68"/>
<path d="M36.6971 120.289C36.6971 120.289 36.3028 120.128 34.9867 117.665C33.6706 115.202 36.2583 114.3 35.7751 111.803C35.2919 109.307 37.4219 106.75 38.2802 104.596C38.1108 106.216 38.2935 107.854 38.8143 109.388C39.679 111.783 39.9905 113.816 39.2403 116.366C38.7618 117.97 38.1224 119.516 37.3329 120.976" fill="#007F68"/>
<path d="M42.1839 116.029C42.1839 116.029 41.8279 115.787 41.0204 113.095C40.2129 110.403 42.9278 110.094 42.9278 107.523C42.9278 104.952 45.5156 102.934 46.7427 101.016C46.2628 102.563 46.1236 104.207 46.3358 105.82C46.7172 108.351 46.6346 110.41 45.4011 112.745C44.6138 114.211 43.6802 115.582 42.6163 116.837" fill="#007F68"/>
<path d="M129.735 55.4911C129.689 59.4887 129.328 63.4752 128.654 67.409C128.609 67.6849 129.004 67.806 129.054 67.5234C129.74 63.5523 130.11 59.5275 130.161 55.4911C130.161 55.4313 130.138 55.3739 130.098 55.3317C130.058 55.2894 130.004 55.2656 129.948 55.2656C129.891 55.2656 129.837 55.2894 129.797 55.3317C129.757 55.3739 129.735 55.4313 129.735 55.4911Z" fill="#363942"/>
</g>
<defs>
<filter id="filter0_d" x="0" y="0" width="212" height="199" filterUnits="userSpaceOnUse" color-interpolation-filters="sRGB">
<feFlood flood-opacity="0" result="BackgroundImageFix"/>
<feColorMatrix in="SourceAlpha" type="matrix" values="0 0 0 0 0 0 0 0 0 0 0 0 0 0 0 0 0 0 127 0"/>
<feOffset dy="8"/>
<feGaussianBlur stdDeviation="3"/>
<feColorMatrix type="matrix" values="0 0 0 0 0.341667 0 0 0 0 0.291783 0 0 0 0 0.0298958 0 0 0 0.19 0"/>
<feBlend mode="normal" in2="BackgroundImageFix" result="effect1_dropShadow"/>
<feBlend mode="normal" in="SourceGraphic" in2="effect1_dropShadow" result="shape"/>
</filter>
<linearGradient id="paint0_linear" x1="31.0574" y1="154.616" x2="38.2163" y2="149.41" gradientUnits="userSpaceOnUse">
<stop stop-opacity="0"/>
<stop offset="1" stop-color="#3F1E00"/>
</linearGradient>
<linearGradient id="paint1_linear" x1="3623.72" y1="4852" x2="4019.25" y2="4415.16" gradientUnits="userSpaceOnUse">
<stop stop-opacity="0"/>
<stop offset="1" stop-color="#3F1E00"/>
</linearGradient>
<linearGradient id="paint2_linear" x1="7702.72" y1="4579.26" x2="8592.09" y2="3698.04" gradientUnits="userSpaceOnUse">
<stop stop-opacity="0"/>
<stop offset="1" stop-color="#3F1E00"/>
</linearGradient>
</defs>
</svg>
