<svg width="37" height="36" viewBox="0 0 37 36" fill="none" xmlns="http://www.w3.org/2000/svg">
<path d="M36.2175 0.16391C36.1307 0.218548 35.7983 0.424957 35.4804 0.622257C32.1995 2.65902 28.6354 5.48802 25.1175 8.84519C23.2472 10.633 21.0619 12.9187 19.2495 14.9798C16.1132 18.5494 12.9479 22.6381 10.251 26.6023L10.1122 26.8057L10.0197 26.748C9.9677 26.7147 7.82864 25.4428 5.26176 23.919C1.47794 21.6759 0.590515 21.1598 0.561609 21.1932C0.38239 21.3996 0.110671 21.773 0.119343 21.8003C0.125124 21.8185 2.74403 25.0209 5.94106 28.9153L11.7483 35.9969H11.9651L12.1848 36L12.6271 35.0651C17.6654 24.4229 22.9726 16.0604 29.5083 8.45362C31.4161 6.23473 34.2027 3.29039 36.3909 1.18684C36.6366 0.950081 36.8361 0.737602 36.8361 0.713322C36.8303 0.667789 36.4169 0.0637436 36.3909 0.0637436C36.3822 0.0637436 36.3042 0.106239 36.2175 0.16391Z" fill="#FFC700"/>
</svg>
