<svg width="80" height="95" viewBox="0 0 80 95" fill="none" xmlns="http://www.w3.org/2000/svg">
<path d="M57.2002 4.11766V40.1896H19.6072V3.52591C25.2426 1.23282 31.3477 0 37.7344 0C44.6378 0 51.2123 1.4547 57.2236 4.11766H57.2002Z" fill="#E4E7ED"/>
<path d="M57.2001 40.1894C51.0951 40.1894 44.99 40.1894 38.885 40.1894C39.4719 21.9192 56.613 21.204 57.2001 40.1894Z" fill="#C6CBD6"/>
<path d="M13.5491 26.0366H38.9789H48.0191C43.4872 26.0366 39.707 31.4117 38.9789 38.4387V84.2746L35.2924 78.6529L31.3711 84.6442L27.4497 78.6529L23.5283 84.6442L19.6069 78.6529L15.6855 84.6442L11.7641 78.6529L7.84276 84.6442L3.92138 78.6529L0 84.6442V40.3372C0 32.4472 6.12856 26.0366 13.6189 26.0366H13.5491Z" fill="white"/>
<path d="M43.0645 48.6465H79.9998V95H43.0645V48.6465Z" fill="#5D718F"/>
<path d="M47.4555 63.7856H51.2594C51.7759 63.7856 52.1985 64.2294 52.1985 64.7718V68.7661C52.1985 69.3085 51.7759 69.7522 51.2594 69.7522H47.4555C46.939 69.7522 46.5164 69.3085 46.5164 68.7661V64.7718C46.5164 64.2294 46.939 63.7856 47.4555 63.7856Z" fill="white"/>
<path d="M54.8286 63.7856H58.6324C59.149 63.7856 59.5716 64.2294 59.5716 64.7718V68.7661C59.5716 69.3085 59.149 69.7522 58.6324 69.7522H54.8286C54.312 69.7522 53.8894 69.3085 53.8894 68.7661V64.7718C53.8894 64.2294 54.312 63.7856 54.8286 63.7856Z" fill="white"/>
<path d="M62.2014 63.7856H66.0052C66.5218 63.7856 66.9444 64.2294 66.9444 64.7718V68.7661C66.9444 69.3085 66.5218 69.7522 66.0052 69.7522H62.2014C61.6848 69.7522 61.2622 69.3085 61.2622 68.7661V64.7718C61.2622 64.2294 61.6848 63.7856 62.2014 63.7856Z" fill="#83CF8F"/>
<path d="M69.5744 63.7856H73.3783C73.8948 63.7856 74.3174 64.2294 74.3174 64.7718V68.7661C74.3174 69.3085 73.8948 69.7522 73.3783 69.7522H69.5744C69.0579 69.7522 68.6353 69.3085 68.6353 68.7661V64.7718C68.6353 64.2294 69.0579 63.7856 69.5744 63.7856Z" fill="#FFE356"/>
<path d="M47.4555 71.355H51.2594C51.7759 71.355 52.1985 71.7987 52.1985 72.3412V76.3354C52.1985 76.8778 51.7759 77.3215 51.2594 77.3215H47.4555C46.939 77.3215 46.5164 76.8778 46.5164 76.3354V72.3412C46.5164 71.7987 46.939 71.355 47.4555 71.355Z" fill="white"/>
<path d="M54.8286 71.355H58.6324C59.149 71.355 59.5716 71.7987 59.5716 72.3412V76.3354C59.5716 76.8778 59.149 77.3215 58.6324 77.3215H54.8286C54.312 77.3215 53.8894 76.8778 53.8894 76.3354V72.3412C53.8894 71.7987 54.312 71.355 54.8286 71.355Z" fill="white"/>
<path d="M62.2016 71.355H66.0055C66.522 71.355 66.9446 71.7987 66.9446 72.3412V76.3354C66.9446 76.8778 66.522 77.3215 66.0055 77.3215H62.2016C61.6851 77.3215 61.2625 76.8778 61.2625 76.3354V72.3412C61.2625 71.7987 61.6851 71.355 62.2016 71.355Z" fill="white"/>
<path d="M69.5747 71.355H73.3785C73.8951 71.355 74.3177 71.7987 74.3177 72.3412V76.3354C74.3177 76.8778 73.8951 77.3215 73.3785 77.3215H69.5747C69.0581 77.3215 68.6355 76.8778 68.6355 76.3354V72.3412C68.6355 71.7987 69.0581 71.355 69.5747 71.355Z" fill="white"/>
<path d="M47.4555 78.949H51.2594C51.7759 78.949 52.1985 79.3927 52.1985 79.9352V83.9294C52.1985 84.4718 51.7759 84.9156 51.2594 84.9156H47.4555C46.939 84.9156 46.5164 84.4718 46.5164 83.9294V79.9352C46.5164 79.3927 46.939 78.949 47.4555 78.949Z" fill="white"/>
<path d="M54.8286 78.9492H58.6324C59.149 78.9492 59.5716 79.393 59.5716 79.9354V83.9296C59.5716 84.472 59.149 84.9158 58.6324 84.9158H54.8286C54.312 84.9158 53.8894 84.472 53.8894 83.9296V79.9354C53.8894 79.393 54.312 78.9492 54.8286 78.9492Z" fill="white"/>
<path d="M62.2016 78.9492H66.0055C66.522 78.9492 66.9446 79.393 66.9446 79.9354V83.9296C66.9446 84.472 66.522 84.9158 66.0055 84.9158H62.2016C61.6851 84.9158 61.2625 84.472 61.2625 83.9296V79.9354C61.2625 79.393 61.6851 78.9492 62.2016 78.9492Z" fill="white"/>
<path d="M69.5747 78.9492H73.3785C73.8951 78.9492 74.3177 79.393 74.3177 79.9354V83.9296C74.3177 84.472 73.8951 84.9158 73.3785 84.9158H69.5747C69.0581 84.9158 68.6355 84.472 68.6355 83.9296V79.9354C68.6355 79.393 69.0581 78.9492 69.5747 78.9492Z" fill="white"/>
<path d="M47.4555 86.5186H51.2594C51.7759 86.5186 52.1985 86.9623 52.1985 87.5047V91.499C52.1985 92.0414 51.7759 92.4851 51.2594 92.4851H47.4555C46.939 92.4851 46.5164 92.0414 46.5164 91.499V87.5047C46.5164 86.9623 46.939 86.5186 47.4555 86.5186Z" fill="white"/>
<path d="M54.8286 86.5186H58.6324C59.149 86.5186 59.5716 86.9623 59.5716 87.5047V91.499C59.5716 92.0414 59.149 92.4851 58.6324 92.4851H54.8286C54.312 92.4851 53.8894 92.0414 53.8894 91.499V87.5047C53.8894 86.9623 54.312 86.5186 54.8286 86.5186Z" fill="white"/>
<path d="M62.2016 86.5186H66.0055C66.522 86.5186 66.9446 86.9623 66.9446 87.5047V91.499C66.9446 92.0414 66.522 92.4851 66.0055 92.4851H62.2016C61.6851 92.4851 61.2625 92.0414 61.2625 91.499V87.5047C61.2625 86.9623 61.6851 86.5186 62.2016 86.5186Z" fill="white"/>
<path d="M69.5747 86.5186H73.3785C73.8951 86.5186 74.3177 86.9623 74.3177 87.5047V91.499C74.3177 92.0414 73.8951 92.4851 73.3785 92.4851H69.5747C69.0581 92.4851 68.6355 92.0414 68.6355 91.499V87.5047C68.6355 86.9623 69.0581 86.5186 69.5747 86.5186Z" fill="white"/>
<path d="M45.5771 51.0874H77.4875V58.5089H45.5771V51.0874Z" fill="#ECF0F1"/>
<path d="M74.2002 51.9753C74.6934 51.9753 75.163 52.1972 75.4916 52.5425C75.8203 52.8876 76.0318 53.3809 76.0318 53.8986V55.3039C76.0318 55.8463 75.8205 56.3149 75.4916 56.66C75.163 57.0051 74.6932 57.2271 74.2002 57.2271C73.7072 57.2271 73.2374 57.0053 72.9088 56.66C72.5801 56.3149 72.3687 55.8216 72.3687 55.3039V53.8986C72.3687 53.3561 72.58 52.8876 72.9088 52.5425C73.2376 52.1974 73.707 51.9753 74.2002 51.9753ZM75.022 53.0356C74.8107 52.8137 74.5055 52.6657 74.2002 52.6657C73.8716 52.6657 73.5897 52.8137 73.3784 53.0356C73.1671 53.2575 73.0261 53.578 73.0261 53.8986V55.3039C73.0261 55.649 73.1671 55.945 73.3784 56.1669C73.5897 56.3888 73.8949 56.5367 74.2002 56.5367C74.5289 56.5367 74.8107 56.3888 75.022 56.1669C75.2333 55.945 75.3743 55.6245 75.3743 55.3039V53.8986C75.3743 53.5533 75.2333 53.2575 75.022 53.0356Z" fill="#807E7E"/>
<path d="M10.6143 35.8008H27.8257V37.4774H10.6143V35.8008Z" fill="#83CF8F"/>
<path d="M15.6152 40.1897H34.8931V41.8663H15.6152V40.1897Z" fill="#C6CBD6"/>
<path d="M15.6152 46.4277H34.8931V48.0796H15.6152V46.4277Z" fill="#C6CBD6"/>
<path d="M15.6152 52.6409H34.8931V54.3176H15.6152V52.6409Z" fill="#C6CBD6"/>
<path d="M15.6152 58.8789H34.8931V60.5309H15.6152V58.8789Z" fill="#C6CBD6"/>
<path d="M15.6152 65.0923H25.266V66.7689H15.6152V65.0923Z" fill="#FF7069"/>
<path d="M1.57397 71.7988H3.2412V73.5495H1.57397V71.7988ZM35.0813 71.7988H36.7485V73.5495H35.0813V71.7988ZM31.3478 71.7988H33.015V73.5495H31.3478V71.7988ZM27.6143 71.7988H29.2815V73.5495H27.6143V71.7988ZM23.8808 71.7988H25.5481V73.5495H23.8808V71.7988ZM20.1474 71.7988H21.8146V73.5495H20.1474V71.7988ZM16.4139 71.7988H18.0811V73.5495H16.4139V71.7988ZM12.6804 71.7988H14.3477V73.5495H12.6804V71.7988ZM8.94696 71.7988H10.6142V73.5495H8.94696V71.7988ZM5.21349 71.7988H6.88072V73.5495H5.21349V71.7988Z" fill="#C6CBD6"/>
<path d="M4.13326 45.0961C4.13326 44.0606 4.34456 43.2222 4.74378 42.5811C5.14299 41.94 5.75351 41.5208 6.55174 41.3483V40.2141H8.43028V41.3483C9.2521 41.5208 9.86262 41.94 10.2852 42.5563C10.6844 43.1974 10.8957 44.0358 10.8957 45.0959V45.5889H8.71195V44.9479C8.71195 44.3807 8.61799 44.011 8.40669 43.7644C8.19539 43.5425 7.91352 43.4193 7.56128 43.4193C7.20904 43.4193 6.92737 43.5425 6.71587 43.7644C6.50457 43.9863 6.41061 44.3807 6.41061 44.9479C6.41061 45.4657 6.52796 45.934 6.73926 46.3039C6.95057 46.6738 7.23244 47.0436 7.58467 47.3642C7.91332 47.6847 8.26556 48.0053 8.66477 48.3258C9.0404 48.6463 9.41623 48.9914 9.74487 49.3861C10.0735 49.7805 10.3554 50.249 10.5903 50.7669C10.8016 51.2847 10.9189 51.901 10.9189 52.6408C10.9189 53.701 10.7076 54.5392 10.285 55.1803C9.86242 55.8214 9.2519 56.2406 8.43008 56.4131V57.5227H6.55155V56.4131C5.70614 56.2406 5.09582 55.8214 4.67302 55.1803C4.2738 54.5392 4.0625 53.6763 4.0625 52.6408V51.5805H6.24629V52.7886C6.24629 53.3557 6.36364 53.7254 6.57494 53.9475C6.78624 54.1696 7.06811 54.268 7.44374 54.268C7.79597 54.268 8.10123 54.1694 8.31254 53.9475C8.52384 53.7256 8.64119 53.3312 8.64119 52.7886C8.64119 52.2707 8.52384 51.8024 8.31254 51.4325C8.10123 51.0627 7.81937 50.6928 7.46713 50.3722C7.13848 50.0517 6.76265 49.7312 6.38703 49.4106C6.0114 49.0901 5.63557 48.745 5.30693 48.3504C4.97828 47.9559 4.69641 47.4874 4.46152 46.9696C4.22663 46.4517 4.13326 45.8358 4.13326 45.0961Z" fill="#FFE356"/>
</svg>
