<svg width="137" height="121" viewBox="0 0 137 121" fill="none" xmlns="http://www.w3.org/2000/svg">
<path d="M1.79028 85.3796L63.9886 120.567L136.621 78.2719V49.8331L63.9886 92.1283L1.79028 56.5739V85.3796Z" fill="#0A297C"/>
<path opacity="0.15" d="M1.79028 85.3796L63.9886 120.567L136.621 78.2719V49.8331L63.9886 92.1283L1.79028 56.5739V85.3796Z" fill="black"/>
<path d="M1.79028 56.5739L75.8108 14.1033L136.621 49.8332L63.9886 92.1284L1.79028 56.5739Z" fill="#0A297C"/>
<path opacity="0.15" d="M63.9888 92.1283V120.567L136.621 78.2719V49.8331L63.9888 92.1283Z" fill="black"/>
<path d="M64.0763 29.7146C64.5587 29.9679 65.0087 30.2786 65.4165 30.6399C65.726 30.9019 65.9948 31.2084 66.2142 31.5493C66.3601 31.7858 66.4805 32.0372 66.5732 32.2992C66.6336 32.4736 66.6633 32.6571 66.6609 32.8416V33.0411L63.3903 33.2565C63.4036 33.1398 63.4036 33.0221 63.3903 32.9055C63.3284 32.6381 63.2086 32.3875 63.0393 32.1716C62.7936 31.8032 62.4551 31.506 62.0581 31.31C61.5546 31.033 60.9894 30.8876 60.4148 30.8872C59.929 30.8639 59.4476 30.9891 59.0347 31.2462C58.9461 31.2883 58.8671 31.3482 58.8026 31.4221C58.738 31.4959 58.6893 31.5823 58.6594 31.6757C58.6295 31.7691 58.619 31.8677 58.6287 31.9654C58.6384 32.063 58.668 32.1576 58.7156 32.2433C58.9615 32.712 59.2852 33.1355 59.6729 33.4958C60.1197 33.9332 60.5431 34.3938 60.9413 34.8758C61.1328 35.0909 61.2754 35.3448 61.3594 35.6202C61.4434 35.8956 61.4668 36.186 61.4279 36.4713C61.3375 36.8216 61.1753 37.1494 60.9514 37.4337C60.7276 37.7179 60.447 37.9525 60.1276 38.1226C58.9402 38.8882 57.5516 39.2825 56.139 39.2553C54.5287 39.2559 52.9448 38.8469 51.5361 38.0667C50.9864 37.7806 50.4745 37.4269 50.0125 37.0137C49.661 36.7112 49.3618 36.3527 49.127 35.9528C48.9721 35.6674 48.8439 35.3683 48.7441 35.0593C48.6796 34.8502 48.65 34.6319 48.6564 34.4131V34.1659L51.8473 34.0143C51.8473 34.118 51.8473 34.2536 51.8473 34.4291C51.9267 34.765 52.0762 35.0804 52.286 35.3545C52.6106 35.8313 53.053 36.2161 53.5703 36.4713C54.1757 36.8096 54.8553 36.9932 55.5487 37.0057C56.1336 37.032 56.7125 36.879 57.2079 36.567C57.2957 36.524 57.374 36.4636 57.4379 36.3897C57.5018 36.3157 57.5501 36.2295 57.5799 36.1364C57.6097 36.0433 57.6204 35.9451 57.6113 35.8477C57.6022 35.7504 57.5735 35.6558 57.527 35.5698C57.2817 35.0987 56.955 34.6746 56.5618 34.3174C56.1109 33.8816 55.6848 33.4208 55.2854 32.9374C55.0954 32.7218 54.9548 32.4674 54.8735 32.1917C54.7922 31.9161 54.7721 31.6261 54.8148 31.3419C54.9015 30.9911 55.0614 30.6626 55.2842 30.3779C55.5069 30.0933 55.7874 29.8591 56.1071 29.6906C57.2215 29.0006 58.5143 28.6538 59.8245 28.6935C61.3057 28.665 62.7695 29.0166 64.0763 29.7146Z" fill="white"/>
<path d="M78.1003 46.6901L77.0712 47.2724L70.5937 43.8103C70.4266 43.9537 70.3029 44.1411 70.2366 44.3511C70.1704 44.5612 70.1642 44.7855 70.2188 44.9989C70.3126 45.2629 70.4613 45.5039 70.6552 45.7061C70.8491 45.9082 71.0838 46.0669 71.3436 46.1716C71.8264 46.4241 72.346 46.5991 72.8832 46.6901C73.3271 46.7757 73.7797 46.8078 74.2313 46.7858H74.7498L74.4866 48.4929H74.1675C74.0239 48.4929 73.7447 48.4929 73.3698 48.4929C72.9613 48.4763 72.554 48.439 72.1493 48.3813C71.668 48.3063 71.1933 48.1943 70.7293 48.0462C70.2113 47.8888 69.7092 47.6832 69.2296 47.432C67.9134 46.73 67.2273 45.8365 67.1555 44.7756C67.0838 43.7146 67.6422 42.7733 68.8387 41.9676C70.153 41.1152 71.6763 40.6405 73.2422 40.5955C74.8188 40.4701 76.3997 40.7791 77.8131 41.489C79.0894 42.167 79.7595 43.0046 79.8074 43.9938C79.8553 44.983 79.2969 45.8844 78.1003 46.6901ZM72.2131 42.7015L76.3214 44.8952C76.4809 44.7621 76.6036 44.5902 76.6777 44.3961C76.7517 44.2019 76.7746 43.9919 76.7442 43.7864C76.6829 43.5634 76.5712 43.3575 76.4177 43.1846C76.2641 43.0117 76.0729 42.8764 75.8587 42.7892C75.3172 42.5056 74.7149 42.3578 74.1037 42.3585C73.4608 42.3523 72.8224 42.4659 72.2211 42.6935" fill="white"/>
<path d="M72.6519 35.9448L70.0035 37.7237L71.8223 38.697L69.7721 40.077L67.9533 39.1038L64.6268 41.3374C64.5135 41.3934 64.419 41.4815 64.3552 41.5907C64.2914 41.6999 64.261 41.8254 64.2679 41.9516C64.2679 42.183 64.4513 42.3824 64.7704 42.5579C64.9371 42.6437 65.1105 42.7157 65.2889 42.7733C65.4297 42.8227 65.5736 42.8627 65.7197 42.893H65.8633L63.8929 44.2172C63.2468 44.0767 62.6238 43.8457 62.0422 43.5311H61.9944C60.1117 42.526 60.1437 41.3693 62.0821 40.069L65.4963 37.7796L63.9408 36.9819L65.9909 35.6018L66.7887 36.0405C67.1047 36.1972 67.4596 36.2582 67.8097 36.216C68.2039 36.187 68.5835 36.0549 68.9106 35.8331L70.4422 34.8041L72.6519 35.9448Z" fill="white"/>
<path d="M90.9756 50.0087C90.9756 51.0297 90.372 51.9498 89.1648 52.7688C87.8589 53.6172 86.3491 54.0993 84.7932 54.1648C83.3187 54.3067 81.8341 54.0303 80.5095 53.3671C80.0576 53.1444 79.6682 52.8127 79.3767 52.4018C79.1693 52.1449 79.0466 51.8299 79.0257 51.5004V51.1494L74.4149 54.2525L71.95 52.9363L83.9158 44.8953L86.3807 46.2115L85.3596 46.8976H85.591H86.1893C86.4868 46.8809 86.7851 46.8809 87.0827 46.8976C87.433 46.9375 87.7796 47.0042 88.1197 47.097C88.4977 47.2273 88.8591 47.4013 89.1967 47.6155C89.688 47.8071 90.1154 48.1332 90.43 48.5564C90.7447 48.9797 90.9337 49.483 90.9756 50.0087ZM84.3066 52.1785C85.1293 52.1192 85.9217 51.844 86.6041 51.3807C86.866 51.246 87.0927 51.0517 87.2659 50.8134C87.4391 50.575 87.554 50.2994 87.6012 50.0087C87.5876 49.7332 87.4944 49.4676 87.333 49.2439C87.1716 49.0202 86.9489 48.8481 86.6918 48.7483C86.011 48.408 85.247 48.2696 84.4901 48.3494C83.6668 48.4053 82.8735 48.6807 82.1927 49.1471C81.9152 49.2872 81.6767 49.4939 81.4985 49.7486C81.3204 50.0033 81.208 50.2982 81.1716 50.6069C81.1831 50.8829 81.2744 51.1496 81.4344 51.3747C81.5944 51.5998 81.8162 51.7737 82.073 51.8753C82.7546 52.2129 83.5186 52.3485 84.2747 52.2662" fill="white"/>
<path d="M107.05 52.9681L95.0838 61.0091L92.3875 59.5812L101.099 53.726L98.9048 52.5533L100.5 51.4604C100.933 51.6376 101.382 51.7712 101.84 51.8593C102.232 51.939 102.63 51.9817 103.029 51.9869C103.356 51.9869 103.667 51.9869 103.93 51.9391C104.145 51.9242 104.359 51.8922 104.569 51.8434L104.784 51.7875L107.05 52.9681Z" fill="white"/>
<path d="M12.4399 19.4878L8.58691 40.061L19.8906 27.122" fill="#F9CE9B"/>
<path d="M40.5357 71.8183C39.6024 71.5311 35.5898 71.7544 35.5898 71.7544C35.5898 71.7544 35.3665 68.4758 35.4622 68.3243L31.322 68.1807C31.322 68.1807 30.1813 74.1077 30.0935 74.8975C29.942 76.3493 31.689 76.9875 32.0878 76.9715C32.3801 76.9047 32.6679 76.8195 32.9494 76.7163C32.8762 75.9549 32.8762 75.1882 32.9494 74.4268C33.0052 74.0838 33.1009 73.8445 33.4519 73.7488C34.0821 73.5812 35.175 74.028 35.7813 74.2114C36.3875 74.3949 37.2092 74.6741 37.9271 74.8815C39.6343 74.1955 41.118 73.5174 41.2377 73.1983C41.6445 72.4166 42.0035 72.257 40.5357 71.8183Z" fill="#F9CE9B"/>
<path d="M41.9157 72.2172L41.828 72.0976C41.5488 71.7625 40.7192 71.6987 40.3283 71.6509C38.758 71.4973 37.175 71.5348 35.6138 71.7625C35.6138 71.7625 39.395 71.6429 39.4667 72.3289C39.4993 72.6039 39.4672 72.8826 39.373 73.143C39.2788 73.4033 39.1252 73.6381 38.9243 73.8286C37.2172 75.0491 34.9357 73.2702 33.5078 72.4565L30.8194 70.9489L30.3966 73.2224C30.1903 74.2603 30.0808 75.3152 30.0696 76.3734C30.2291 76.7164 31.8086 77.7694 32.1756 77.6258C32.5425 77.4822 33.7152 76.9397 33.7152 76.9397L33.787 74.1477C33.787 74.1477 36.0126 75.4001 37.1374 75.2246C37.991 75.097 42.7454 73.6132 41.9157 72.2172Z" fill="#56403D"/>
<path d="M8.55512 91.4343C7.94087 91.1471 7.02349 90.8759 6.63261 90.2616C6.34463 89.5563 6.27786 88.7801 6.44116 88.036C6.49434 87.3287 6.56613 86.624 6.65654 85.9221C6.6209 85.8869 6.59321 85.8444 6.57533 85.7977C6.55744 85.7509 6.54977 85.7008 6.55284 85.6508C6.57789 85.0755 6.64185 84.5025 6.74429 83.9357L3.88047 83.3534C3.88047 83.3534 2.07762 88.1397 2.10155 88.73C2.12549 89.3203 4.49471 93.3408 5.85084 93.7397C7.20697 94.1386 11.2355 93.3249 11.6104 92.8303V92.7824C10.6053 92.3596 9.5762 91.9129 8.55512 91.4343Z" fill="#F9CE9B"/>
<path d="M4.78182 89.0969C4.78182 89.0969 5.79492 93.979 6.31344 94.3459C6.83195 94.7129 12.8308 93.4684 12.081 92.2718C11.6023 91.4741 8.09235 91.1471 7.7972 91.0274C7.7972 91.0274 9.57611 91.8251 9.5442 92.1203C9.51229 92.4154 7.07925 93.2451 6.98352 93.0137C6.8878 92.7824 4.78979 88.379 4.78979 88.379L2.50034 87.2941L0.107178 91.4342L1.70262 92.3197C1.70262 92.3197 2.06957 93.6918 2.24507 93.7077C2.89427 92.9928 3.48891 92.2302 4.02398 91.4263C4.06878 92.0374 4.20039 92.6391 4.41487 93.2132C4.63025 93.4046 6.39321 95.1995 7.40631 94.0747L5.97042 92.0804" fill="#56403D"/>
<path d="M21.3425 43.5391C23.1932 37.4844 23.2411 38.5613 24.4536 33.5676L12.3442 30.3767C6.16986 39.6382 0.42627 84.3106 0.42627 84.3106C0.42627 84.3106 6.4012 89.0969 11.5944 87.6451C11.5944 87.6451 18.5904 50.7824 18.6063 50.7425C19.6035 48.2457 19.6434 47.775 21.3425 43.5391Z" fill="#999A1C"/>
<path d="M39.1475 45.8525C37.3925 40.1249 22.6985 33.089 22.6985 33.089L17.5771 48.5967C17.8324 47.799 27.0142 50.1921 27.8837 51.1175C29.9817 53.3431 29.0005 57.8662 28.6814 60.6104C28.6814 60.6104 27.8039 65.0377 27.2455 68.1728C30.8034 70.9169 37.568 68.1728 37.568 68.1728C37.568 68.1728 40.9025 51.6041 39.1475 45.8525Z" fill="#999A1C"/>
<path d="M19.4199 48.5887C19.4199 48.5887 16.1573 48.0702 14.3464 46.5864L13.6843 74.2833L19.4199 48.5887Z" fill="#7A770E"/>
<path d="M34.1061 27.1301L36.0365 40.5318C36.0365 40.5318 39.738 43.7227 40.2326 45.4378C40.365 45.9639 40.3756 46.5132 40.2636 47.0441C40.1517 47.5749 39.92 48.0732 39.5864 48.501L32.4548 41.7762L27.6685 26.5717" fill="#F9CE9B"/>
<path d="M28.4421 12.803C28.7213 13.4252 31.633 15.9141 32.4307 19.4959C33.2285 23.0776 34.082 27.13 34.082 27.13L25.1316 30.3847" fill="#B05800"/>
<path d="M18.5425 11.0799C16.4524 10.8167 10.4536 18.7301 10.5653 19.9027C10.6769 21.0754 14.5539 24.362 14.5539 24.362" fill="#B05800"/>
<path d="M29.6068 14.5499L29.1442 14.4781C26.751 14.151 24.5254 10.4895 24.5254 10.4895C24.5254 10.4895 24.7088 2.86326 19.5875 8.30372C15.7584 12.3721 13.1339 25.0559 12.041 31.1983C13.5726 32.706 15.7504 33.4399 17.8085 33.9664C19.1672 34.3449 20.5545 34.6117 21.9567 34.7641C22.8209 34.8469 23.693 34.7491 24.5174 34.4769L27.7083 24.7368C28.1686 21.3112 28.8023 17.9112 29.6068 14.5499Z" fill="#B05800"/>
<path d="M31.6411 5.33628C31.6411 5.33628 32.1357 12.4599 28.4502 12.779C24.7648 13.0981 23.5841 9.38073 23.6639 8.57503C23.7437 7.76933 26.081 2.43258 31.6411 5.33628Z" fill="#F9CE9B"/>
<path d="M32.2475 4.59438C31.6988 3.77134 30.9783 3.07701 30.1354 2.55921C29.2926 2.0414 28.3476 1.71243 27.3654 1.59495C25.7187 1.20809 23.9932 1.33334 22.4196 1.95393C22.1488 1.52181 21.7655 1.17157 21.3107 0.94082C20.7647 0.653636 20.1417 0.546812 19.5312 0.635668C18.9207 0.724523 18.354 1.00449 17.9124 1.43541C17.5223 1.84838 17.2826 2.38068 17.2319 2.94653C17.1813 3.51238 17.3226 4.0788 17.6332 4.55449C18.162 5.20817 18.9275 5.62672 19.7631 5.71917L19.7153 5.86276C19.3404 7.0035 18.064 7.10721 17.2583 7.85706C16.8768 8.19677 16.6141 8.64961 16.5084 9.14937C16.4127 9.65193 16.676 10.3539 16.4606 10.8086C16.2452 11.2633 15.8543 11.367 15.5512 11.6063C15.1989 11.833 14.8749 12.1008 14.5859 12.4041C16.2532 14.518 18.9734 15.6987 21.55 16.2411C24.3446 16.9177 27.2831 16.6714 29.9261 15.5391C29.9215 15.2633 29.859 14.9915 29.7426 14.7414C29.4563 14.2917 29.122 13.8744 28.7455 13.4969C28.2589 12.8428 29.4236 12.0132 29.6629 11.391C30.0777 10.33 29.5033 9.56418 28.8013 8.83028C28.2908 8.30378 28.4264 7.90492 28.6976 7.23484C28.8623 6.70872 29.189 6.24807 29.631 5.9186C29.8077 6.02624 30.0166 6.06857 30.2213 6.03825C30.6291 5.98627 31.0419 5.98627 31.4498 6.03825C31.6576 6.05156 31.8624 5.98308 32.0203 5.84744C32.1783 5.7118 32.277 5.51976 32.2954 5.31233C32.3574 5.20078 32.386 5.07367 32.3775 4.94629C32.369 4.81891 32.3238 4.6967 32.2475 4.59438Z" fill="#56403D"/>
<path d="M28.9368 5.91063C30.0125 6.12804 31.1118 6.2058 32.2074 6.14197C32.2074 6.03827 34.114 2.5602 27.1499 1.0206C20.1858 -0.519 19.8906 8.4793 19.8906 8.4793" fill="#56403D"/>
</svg>
