<svg width="45" height="45" viewBox="0 0 45 45" fill="none" xmlns="http://www.w3.org/2000/svg">
<path d="M22.4711 44.7559C16.5719 44.7508 10.9162 42.4025 6.74842 38.2275C2.58061 34.0525 0.242007 28.3929 0.247079 22.4936C0.25215 16.5943 2.60048 10.9387 6.77547 6.77089C10.9505 2.60307 16.6101 0.264468 22.5094 0.269539C28.4086 0.274611 34.0642 2.62295 38.232 6.79794C42.3998 10.9729 44.7385 16.6326 44.7334 22.5318C44.7283 28.4311 42.38 34.0867 38.205 38.2545C34.03 42.4224 28.3704 44.761 22.4711 44.7559Z" fill="url(#paint0_radial)"/>
<path d="M22.5092 0V0.546381C26.6411 0.552482 30.6876 1.72367 34.184 3.92549C37.6804 6.1273 40.4851 9.27048 42.2759 12.9942C44.0668 16.7178 44.7713 20.8711 44.3085 24.977C43.8457 29.083 42.2344 32.9752 39.6596 36.2068C37.0848 39.4384 33.6509 41.8785 29.7521 43.2467C25.8533 44.615 21.6476 44.8561 17.618 43.9423C13.5883 43.0285 9.89809 40.9969 6.97088 38.0806C4.04367 35.1644 1.99817 31.4818 1.06922 27.4556C0.418451 24.6422 0.32873 21.728 0.805186 18.8798C1.28164 16.0316 2.31493 13.3053 3.84595 10.8568C5.37696 8.40824 7.37567 6.28558 9.72774 4.61019C12.0798 2.93479 14.7391 1.73952 17.5535 1.09276C19.1794 0.723697 20.8419 0.540396 22.5092 0.546381V0ZM22.5092 0C20.7991 0.00248085 19.0947 0.19675 17.4279 0.579164C11.8301 1.87441 6.93992 5.2621 3.76005 10.0476C0.580173 14.8331 -0.648455 20.6538 0.326083 26.3163C1.30062 31.9787 4.40448 37.0537 9.00124 40.5008C13.598 43.9479 19.3393 45.5059 25.048 44.8552C30.7567 44.2045 36.0002 41.3946 39.7034 37.0014C43.4065 32.6083 45.2887 26.965 44.964 21.2285C44.6393 15.492 42.1324 10.0971 37.9571 6.14987C33.7819 2.20269 28.2549 0.00234049 22.5092 0V0Z" fill="#5C960B"/>
<g style="mix-blend-mode:multiply" opacity="0.8">
<path style="mix-blend-mode:multiply" opacity="0.8" d="M33.6169 3.77515C38.4084 6.88668 41.7863 11.7556 43.0229 17.3334C44.2595 22.9112 43.256 28.7515 40.2284 33.5965C37.2009 38.4416 32.3916 41.9038 26.8362 43.2374C21.2809 44.5711 15.424 43.6695 10.5269 40.7269C12.9534 42.3407 15.679 43.4515 18.5424 43.9936C21.4058 44.5356 24.3488 44.4979 27.1973 43.8827C30.0459 43.2675 32.7421 42.0873 35.1266 40.4119C37.5111 38.7364 39.5353 36.5998 41.0796 34.1284C42.6239 31.657 43.6569 28.901 44.1175 26.0234C44.5781 23.1458 44.4569 20.2051 43.7611 17.3751C43.0653 14.5451 41.8091 11.8835 40.0667 9.5475C38.3243 7.21153 36.1311 5.24871 33.6169 3.77515Z" fill="url(#paint1_linear)"/>
</g>
<g style="mix-blend-mode:screen">
<path style="mix-blend-mode:screen" d="M18.1555 27.6335C24.1274 19.4979 32.3887 11.2803 41.7482 13.8757C40.5427 11.193 38.7898 8.79199 36.6018 6.82664C34.4139 4.86129 31.8393 3.375 29.0432 2.46316C26.2471 1.55131 23.2912 1.23403 20.3653 1.53169C17.4393 1.82934 14.6079 2.73535 12.0527 4.19159C9.49753 5.64783 7.27496 7.62212 5.52762 9.98781C3.78028 12.3535 2.54676 15.0583 1.90621 17.9288C1.26566 20.7992 1.23223 23.7718 1.80806 26.6559C2.38388 29.5401 3.55625 32.272 5.24994 34.6763C8.71946 34.7419 13.7789 33.5945 18.1555 27.6335Z" fill="url(#paint2_linear)"/>
</g>
<g style="mix-blend-mode:screen">
<path style="mix-blend-mode:screen" d="M3.62004 28.3161C2.69698 24.3322 2.95206 20.1658 4.35423 16.3242C5.75641 12.4827 8.24519 9.13164 11.5176 6.67907C14.79 4.22651 18.7048 2.77823 22.7855 2.51054C26.8662 2.24286 30.9366 3.16733 34.5014 5.17139C32.1552 3.5416 29.5024 2.40531 26.704 1.83143C23.9055 1.25754 21.0196 1.25802 18.2213 1.83283C15.423 2.40764 12.7707 3.54481 10.425 5.17537C8.07935 6.80594 6.08931 8.89593 4.57556 11.3186C3.06181 13.7413 2.05588 16.4462 1.61877 19.2693C1.18167 22.0923 1.32249 24.9748 2.03271 27.7418C2.74293 30.5088 4.00774 33.1028 5.75044 35.3664C7.49315 37.63 9.67745 39.516 12.1709 40.9101C7.84448 37.9306 4.79319 33.4365 3.62004 28.3161Z" fill="url(#paint3_linear)"/>
</g>
<path style="mix-blend-mode:multiply" opacity="0.8" d="M36.624 16.6615L31.6847 11.7222L19.8556 23.5568L14.8453 18.5465L9.90601 23.4858L19.8447 33.4299L19.8556 33.419L19.8665 33.4299L36.624 16.6615Z" fill="url(#paint4_linear)"/>
<path d="M35.7859 15.8213L30.8466 10.8875L19.012 22.7221L14.0071 17.7118L9.06787 22.6565L19.0065 32.5952L19.012 32.5843L19.0284 32.5952L35.7859 15.8213Z" fill="white"/>
<defs>
<radialGradient id="paint0_radial" cx="0" cy="0" r="1" gradientUnits="userSpaceOnUse" gradientTransform="translate(26.0563 38.0709) rotate(-13) scale(22.956)">
<stop stop-color="#88C607"/>
<stop offset="1" stop-color="#22AC00"/>
</radialGradient>
<linearGradient id="paint1_linear" x1="20.0918" y1="14.9546" x2="41.5055" y2="55.8748" gradientUnits="userSpaceOnUse">
<stop stop-color="white"/>
<stop offset="1" stop-color="#FBAE17"/>
</linearGradient>
<linearGradient id="paint2_linear" x1="11.8205" y1="2.75382" x2="26.2413" y2="29.464" gradientUnits="userSpaceOnUse">
<stop stop-color="#FFFBD4"/>
<stop offset="1"/>
</linearGradient>
<linearGradient id="paint3_linear" x1="7.25351" y1="-0.213228" x2="31.6082" y2="38.727" gradientUnits="userSpaceOnUse">
<stop stop-color="white"/>
<stop offset="1"/>
</linearGradient>
<linearGradient id="paint4_linear" x1="495.372" y1="908.903" x2="1801.88" y2="908.903" gradientUnits="userSpaceOnUse">
<stop stop-color="white"/>
<stop offset="1" stop-color="#FBAE17"/>
</linearGradient>
</defs>
</svg>
