<svg width="318" height="300" viewBox="0 0 318 300" fill="none" xmlns="http://www.w3.org/2000/svg">
<path d="M164.277 297.455L313.842 213.3C314.928 212.691 315.836 211.809 316.477 210.74C317.118 209.671 317.469 208.453 317.496 207.206C317.523 205.959 317.224 204.727 316.63 203.631C316.036 202.535 315.167 201.614 314.108 200.959L169.123 110.9C168.023 110.214 166.757 109.842 165.462 109.822C164.167 109.803 162.891 110.137 161.771 110.789L3.56662 202.849C2.48209 203.478 1.58161 204.381 0.955583 205.469C0.329554 206.557 0 207.791 0 209.047C0 210.303 0.329554 211.537 0.955583 212.625C1.58161 213.713 2.48209 214.617 3.56662 215.246L144.637 297.322C147.617 299.053 150.995 299.976 154.439 300C157.883 300.023 161.274 299.146 164.277 297.455Z" fill="#F8997C"/>
<path d="M278.389 198.702V202.927L276.26 205.539" fill="#ADCEE1"/>
<path d="M193.686 147.246L275.971 198.39C276.723 198.859 277.34 199.515 277.763 200.295C278.185 201.075 278.397 201.951 278.38 202.838C278.362 203.726 278.114 204.593 277.66 205.355C277.207 206.117 276.564 206.748 275.794 207.185L150.936 277.987C149.19 278.976 147.216 279.487 145.211 279.47C143.207 279.452 141.242 278.906 139.514 277.887L57.5948 229.622C51.6397 224.719 52.05 215.49 57.5948 215.101L181.743 147.057C183.564 146 185.637 145.46 187.741 145.493C189.844 145.527 191.899 146.132 193.686 147.246Z" fill="#88D3D8"/>
<path d="M193.686 143.721L275.971 194.866C276.723 195.334 277.34 195.99 277.762 196.77C278.185 197.55 278.397 198.427 278.379 199.314C278.362 200.201 278.114 201.068 277.66 201.83C277.207 202.592 276.564 203.223 275.794 203.66L150.925 274.473C149.179 275.462 147.205 275.974 145.2 275.956C143.195 275.939 141.231 275.393 139.503 274.373L57.5838 226.097C56.624 225.538 55.8274 224.736 55.2738 223.771C54.7201 222.806 54.4287 221.712 54.4287 220.599C54.4287 219.486 54.7201 218.393 55.2738 217.428C55.8274 216.463 56.624 215.661 57.5838 215.101L181.732 143.532C183.554 142.474 185.629 141.932 187.735 141.965C189.841 141.999 191.898 142.606 193.686 143.721Z" fill="white"/>
<path d="M198.799 155.44L228.885 174.23C229.419 174.563 229.857 175.029 230.157 175.583C230.457 176.137 230.609 176.759 230.596 177.389C230.584 178.019 230.408 178.635 230.087 179.177C229.766 179.719 229.309 180.167 228.763 180.479L120.772 242.197C119.159 243.13 117.329 243.621 115.466 243.621C113.603 243.621 111.773 243.13 110.16 242.197C103.218 238.139 91.3074 230.834 83.955 226.342C83.3078 225.938 82.7753 225.374 82.409 224.703C82.0427 224.033 81.8549 223.279 81.8638 222.515C81.8727 221.75 82.078 221.001 82.4599 220.339C82.8417 219.678 83.3872 219.126 84.0438 218.737C105.89 206.007 177.196 164.457 192.722 155.362C193.646 154.819 194.7 154.539 195.771 154.552C196.842 154.566 197.889 154.873 198.799 155.44Z" fill="#112E7C"/>
<path d="M197.125 206.451L159.42 227.721C158.841 228.047 158.358 228.52 158.021 229.093C157.683 229.666 157.502 230.319 157.496 230.984C157.491 231.65 157.66 232.306 157.988 232.884C158.317 233.463 158.791 233.945 159.365 234.281L181.544 247.3C182.306 247.741 183.17 247.973 184.05 247.973C184.93 247.973 185.794 247.741 186.556 247.3L225.159 225.23C225.643 224.955 226.046 224.555 226.326 224.073C226.607 223.59 226.754 223.042 226.754 222.484C226.754 221.926 226.607 221.377 226.326 220.895C226.046 220.412 225.643 220.013 225.159 219.738L202.082 206.396C201.321 205.973 200.465 205.756 199.596 205.766C198.727 205.776 197.875 206.012 197.125 206.451Z" fill="#112E7C"/>
<path opacity="0.1" d="M198.799 155.44L228.885 174.23C229.419 174.563 229.857 175.029 230.157 175.583C230.457 176.137 230.609 176.759 230.596 177.389C230.584 178.019 230.408 178.635 230.087 179.177C229.766 179.719 229.309 180.167 228.763 180.479L120.772 242.197C119.159 243.13 117.329 243.621 115.466 243.621C113.603 243.621 111.773 243.13 110.16 242.197C103.218 238.139 91.3074 230.834 83.955 226.342C83.3078 225.938 82.7753 225.374 82.409 224.703C82.0427 224.033 81.8549 223.279 81.8638 222.515C81.8727 221.75 82.078 221.001 82.4599 220.339C82.8417 219.678 83.3872 219.126 84.0438 218.737C105.89 206.007 177.196 164.457 192.722 155.362C193.646 154.819 194.7 154.539 195.771 154.552C196.842 154.566 197.889 154.873 198.799 155.44Z" fill="#053855"/>
<path opacity="0.1" d="M197.125 206.451L159.42 227.721C158.841 228.047 158.358 228.52 158.021 229.093C157.683 229.666 157.502 230.319 157.496 230.984C157.491 231.65 157.66 232.306 157.988 232.884C158.317 233.463 158.791 233.945 159.365 234.281L181.544 247.3C182.306 247.741 183.17 247.973 184.05 247.973C184.93 247.973 185.794 247.741 186.556 247.3L225.159 225.23C225.643 224.955 226.046 224.555 226.326 224.073C226.607 223.59 226.754 223.042 226.754 222.484C226.754 221.926 226.607 221.377 226.326 220.895C226.046 220.412 225.643 220.013 225.159 219.738L202.082 206.396C201.321 205.973 200.465 205.756 199.596 205.766C198.727 205.776 197.875 206.012 197.125 206.451Z" fill="#053855"/>
<path opacity="0.32" d="M258.217 197.646L201.094 232.568L145.591 199.336L199.864 165.847" fill="url(#paint0_linear)"/>
<path d="M235.938 179.556V205.462H237.845L238.256 178.889" fill="#808080"/>
<path d="M246.817 169.594L250.643 197.757H248.724L244.721 170.639" fill="#808080"/>
<path d="M208.181 189.284C208.181 189.284 206.395 195.144 205.963 195.744C205.53 196.345 199.719 200.192 199.819 201.403C199.919 202.615 202.126 203.093 203.501 202.993C204.876 202.893 212.794 199.58 213.293 198.602C213.792 197.623 213.792 189.284 213.792 189.284H208.181Z" fill="#5C2D1D"/>
<path d="M217.573 196.145C217.573 196.145 215.788 202.004 215.355 202.604C214.923 203.205 209.112 207.052 209.212 208.264C209.312 209.476 211.518 209.954 212.893 209.854C214.269 209.753 222.187 206.44 222.686 205.462C223.185 204.483 223.185 196.145 223.185 196.145H217.573Z" fill="#5C2D1D"/>
<path d="M247.848 142.81C247.338 144.233 244.521 165.836 244.521 165.836L241.638 164.868L245.375 142.698" fill="#808080"/>
<path d="M246.817 169.594L246.861 166.114L243.79 167.17L244.721 170.639" fill="#A9CBF8"/>
<path d="M239.83 164.201C239.83 164.201 247.593 167.17 246.772 170.094C245.952 173.018 239.841 180.178 235.894 179.556C231.946 178.933 227.133 175.498 227.133 175.498" fill="#4A42A4"/>
<path d="M239.83 160.643C239.83 160.643 247.593 163.612 246.772 166.536C245.952 169.46 239.841 176.621 235.894 175.998C231.946 175.375 227.133 171.94 227.133 171.94" fill="#A6ACED"/>
<path d="M242.924 133.515C242.924 133.515 250.377 135.382 251.131 139.685C251.885 143.988 252.107 151.915 241.516 148.836C230.926 145.756 235.971 137.784 235.971 137.784" fill="#A6ACED"/>
<path d="M232.977 142.698C232.977 142.698 235.605 153.817 233.654 159.721C231.702 165.625 220.612 170.417 220.612 170.417L215.932 194.288C214.006 194.841 211.989 195.004 210 194.768C208.01 194.531 206.087 193.899 204.344 192.909C204.344 192.909 205.641 171.851 207.604 166.503C209.567 161.155 224.826 150.659 224.826 150.659" fill="#895851"/>
<path d="M233.42 156.797C233.42 156.797 218.161 167.292 216.198 172.64C214.235 177.988 212.938 199.046 212.938 199.046C214.676 200.029 216.592 200.655 218.573 200.89C220.555 201.125 222.563 200.963 224.482 200.414L229.162 176.543C229.162 176.543 237.102 174.319 239.043 168.337C240.984 162.356 240.152 153.383 240.152 153.383" fill="#895851"/>
<path d="M239.486 157.019C242.093 150.67 243.213 134.17 241.605 132.18C238.278 128.055 231.225 128.567 231.225 128.567C231.225 128.567 227.133 126.11 223.706 129.012C221.155 131.18 222.974 144.455 223.706 152.894C228.153 157.019 233.088 158.175 239.486 157.019Z" fill="#8CC63F"/>
<path d="M228.552 158.92C225.802 161.666 222.863 164.312 220.313 167.248C218.095 169.794 217.219 173.018 216.354 176.22C214.532 183.714 213.264 191.332 212.561 199.013C212.561 199.48 213.237 199.469 213.282 199.013C213.971 191.626 215.172 184.296 216.875 177.076C217.795 173.552 218.705 170.05 221.222 167.314C223.739 164.579 226.445 162.055 229.062 159.432C229.112 159.361 229.136 159.275 229.128 159.189C229.121 159.102 229.083 159.021 229.022 158.96C228.961 158.899 228.881 158.861 228.795 158.854C228.709 158.847 228.623 158.87 228.552 158.92Z" fill="#5C2D1D"/>
<path d="M258.683 177.121L260.102 176.342L194.973 138.94L152.611 163.034L153.176 163.367V195.166C153.19 195.24 153.229 195.306 153.287 195.354C153.345 195.402 153.417 195.429 153.492 195.429C153.567 195.429 153.64 195.402 153.698 195.354C153.755 195.306 153.795 195.24 153.809 195.166V163.734L216.465 200.425L216.62 200.336V223.229C216.634 223.303 216.673 223.369 216.731 223.417C216.788 223.465 216.861 223.492 216.936 223.492C217.011 223.492 217.084 223.465 217.141 223.417C217.199 223.369 217.238 223.303 217.252 223.229V200.002L258.284 177.376V197.645C258.297 197.719 258.337 197.786 258.394 197.834C258.452 197.882 258.525 197.908 258.6 197.908C258.675 197.908 258.747 197.882 258.805 197.834C258.863 197.786 258.902 197.719 258.916 197.645V177.41C258.917 177.342 258.894 177.276 258.852 177.223C258.809 177.17 258.749 177.134 258.683 177.121Z" fill="#DD654A"/>
<path d="M258.683 177.121L260.102 176.342L194.973 138.94L152.611 163.034L153.176 163.367V195.166C153.19 195.24 153.229 195.306 153.287 195.354C153.345 195.402 153.417 195.429 153.492 195.429C153.567 195.429 153.64 195.402 153.698 195.354C153.755 195.306 153.795 195.24 153.809 195.166V163.734L216.465 200.425L216.62 200.336V223.229C216.634 223.303 216.673 223.369 216.731 223.417C216.788 223.465 216.861 223.492 216.936 223.492C217.011 223.492 217.084 223.465 217.141 223.417C217.199 223.369 217.238 223.303 217.252 223.229V200.002L258.284 177.376V197.645C258.297 197.719 258.337 197.786 258.394 197.834C258.452 197.882 258.525 197.908 258.6 197.908C258.675 197.908 258.747 197.882 258.805 197.834C258.863 197.786 258.902 197.719 258.916 197.645V177.41C258.917 177.342 258.894 177.276 258.852 177.223C258.809 177.17 258.749 177.134 258.683 177.121Z" fill="#DD654A"/>
<path opacity="0.32" d="M193.321 161.855L172.86 173.285C176.287 175.453 190.038 182.869 193.343 185.204L214.491 171.64L210.997 163.145L193.321 161.855Z" fill="url(#paint1_linear)"/>
<path d="M210.221 174.13L225.125 165.424L205.707 154.239L190.481 162.089" fill="#B3B3B3"/>
<path d="M206.373 156.963C206.373 156.963 210.288 174.352 210.232 174.13C210.177 173.908 190.937 163.545 190.803 163.178C190.67 162.812 185.713 145.167 185.713 145.167L206.373 156.963Z" fill="white"/>
<path d="M200.74 153.75L204.754 151.326L209.534 155.318L205.941 156.83L200.74 153.75Z" fill="#FFE0CE"/>
<path d="M202.958 150.993C202.958 150.993 208.269 152.872 207.826 157.808C207.826 157.808 216.11 154.351 217.951 152.149C219.792 149.948 223.695 145.178 223.695 145.178V129.001C223.695 129.001 213.714 144.566 211.497 146.49C209.767 148.013 202.958 150.993 202.958 150.993Z" fill="#8CC63F"/>
<path d="M230.382 126.354C230.382 127.711 230.382 129.067 230.382 130.424C230.626 131.046 230.97 131.48 231.491 131.424C233.11 131.246 235.029 128.834 235.029 128.834L235.317 125.053L230.382 126.354Z" fill="#F9C7AF"/>
<path d="M238.244 116.97C237.235 114.747 235.25 114.38 233.199 114.747C232.731 114.412 232.204 114.171 231.646 114.035C230.76 113.818 229.83 113.855 228.963 114.142C228.096 114.429 227.328 114.954 226.745 115.658C226.185 115.587 225.616 115.66 225.092 115.87C223.551 116.526 223.362 118.171 223.717 119.616C223.717 119.672 223.717 119.728 223.717 119.783C223.809 120.567 224.102 121.313 224.566 121.95C225.03 122.587 225.651 123.093 226.368 123.419L234.374 127.422C235.242 126.947 235.975 126.258 236.503 125.42C236.677 125.091 236.79 124.733 236.836 124.364L236.991 124.197C237.835 123.22 238.398 122.031 238.618 120.758C238.839 119.485 238.71 118.175 238.244 116.97Z" fill="#895851"/>
<path d="M226.235 121.384C226.434 122.24 227.876 130.379 231.536 129.69C235.195 129 235.428 123.586 235.428 123.586C235.428 123.586 232.101 122.685 231.846 121.44C231.591 120.195 231.713 119.65 230.094 119.316C228.475 118.983 225.891 119.961 226.235 121.384Z" fill="#FFE0CE"/>
<path d="M223.041 145.978L222.508 138.029L220.124 149.536L223.041 145.978Z" fill="#6D9928"/>
<path d="M223.307 159.532C222.986 159.568 222.674 159.662 222.387 159.81C221.522 160.232 220.557 160.51 219.703 160.921C218.287 161.771 217.134 162.999 216.376 164.468C216.199 164.846 215.467 166.247 215.844 166.636C216.221 167.025 217.097 166.636 217.097 166.636C217.097 166.636 217.097 167.437 217.33 167.615C217.563 167.793 218.439 167.148 218.439 167.148C218.439 167.148 218.816 168.126 219.348 167.893C219.88 167.659 220.812 166.269 220.812 166.269C220.812 166.269 220.712 167.381 221.178 167.381C221.644 167.381 223.607 164.657 223.607 164.657L227.776 162.434C227.776 162.434 226.545 161.099 226.423 160.977C225.861 160.417 225.199 159.968 224.471 159.654C224.099 159.519 223.699 159.477 223.307 159.532Z" fill="#FFE0CE"/>
<path d="M222.597 163.056C221.655 164.076 220.947 165.29 220.523 166.614C220.523 166.781 220.723 166.848 220.779 166.681C221.189 165.402 221.874 164.229 222.786 163.245C222.897 163.123 222.719 162.934 222.597 163.056Z" fill="#5C2D1D"/>
<path d="M221.377 162.244C219.867 163.613 218.797 165.401 218.305 167.381C218.301 167.413 218.309 167.445 218.327 167.472C218.346 167.498 218.373 167.518 218.404 167.526C218.435 167.534 218.468 167.53 218.496 167.516C218.525 167.502 218.548 167.478 218.56 167.448C219.041 165.514 220.088 163.767 221.565 162.433C221.687 162.356 221.499 162.122 221.377 162.244Z" fill="#5C2D1D"/>
<path d="M220.135 161.955C218.654 163.228 217.546 164.881 216.93 166.736C216.93 166.903 217.13 166.97 217.185 166.803C217.789 164.989 218.874 163.375 220.324 162.133C220.457 162.033 220.268 161.844 220.135 161.955Z" fill="#5C2D1D"/>
<path d="M241.849 145.767C241.849 145.767 240.318 155.551 238.267 157.808C236.215 160.065 227.177 164.079 227.177 164.079C227.177 164.079 224.959 160.088 222.52 159.154C222.52 159.154 231.724 153.961 231.957 152.983" fill="#8CC63F"/>
<path d="M234.285 139.207C234.13 141.32 233.919 143.421 233.609 145.511C233.442 147.392 233.101 149.253 232.589 151.07C231.912 152.994 229.35 154.139 227.72 155.195C226.09 156.252 224.26 157.419 222.519 158.531C222.12 158.775 222.519 159.398 222.885 159.153C224.926 157.908 226.948 156.626 228.951 155.307C230.304 154.417 232.367 153.494 233.088 151.971C233.733 150.085 234.128 148.123 234.263 146.134C234.607 143.91 234.851 141.586 235.017 139.296C235.028 138.74 234.285 138.751 234.285 139.207Z" fill="#6D9928"/>
<path d="M44.3428 96.1567C43.6687 96.5377 43.1079 97.0918 42.7182 97.762C42.3284 98.4322 42.1236 99.1944 42.1249 99.9703V207.385C41.9696 209.609 44.4426 211.599 46.4498 210.454L90.3202 185.415C92.0835 184.403 172.383 139.107 172.383 137.072L176.808 24.4875C176.823 24.112 176.737 23.7394 176.56 23.4081C176.383 23.0768 176.121 22.7988 175.801 22.6028C175.482 22.4068 175.116 22.2999 174.741 22.2931C174.366 22.2862 173.996 22.3798 173.67 22.564C154.085 33.7046 53.2477 90.9755 44.3428 96.1567Z" fill="#112E7C"/>
<path opacity="0.6" d="M53.0486 106.108V196.278L62.7298 190.096V100.504L53.0486 106.108Z" fill="white"/>
<path d="M66.2008 86.6283L46.1508 98.4137C45.9573 98.5271 45.797 98.6895 45.6861 98.8847C45.5751 99.0799 45.5174 99.3009 45.5187 99.5256V206.829C45.5198 206.981 45.5605 207.13 45.6369 207.261C45.7132 207.392 45.8225 207.5 45.9539 207.576C46.0852 207.651 46.2339 207.691 46.3852 207.69C46.5366 207.69 46.6852 207.65 46.8162 207.574L172.55 134.193C172.542 135.092 172.324 135.976 171.914 136.775C171.504 137.575 170.913 138.267 170.188 138.796C167.781 140.33 46.4946 210.354 46.4946 210.354C46.4946 210.354 43.1677 211.877 42.1697 207.863V99.9703C42.1714 99.2723 42.3369 98.5846 42.6528 97.9626C42.9688 97.3407 43.4263 96.802 43.9884 96.3902C45.929 94.9782 170.798 22.0526 170.798 22.0526C170.798 22.0526 175.345 20.3848 176.853 23.1644L79.0315 79.2123" fill="#124577"/>
<path d="M180.612 0.271619C173.603 4.4299 156.215 14.7255 151.08 17.7386C150.638 17.9959 150.272 18.366 150.019 18.8112C149.765 19.2565 149.634 19.7611 149.639 20.2736V91.6537C149.616 92.0067 149.683 92.3597 149.835 92.679C149.987 92.9982 150.219 93.273 150.507 93.4771C150.795 93.6813 151.13 93.8079 151.481 93.8449C151.832 93.8819 152.187 93.828 152.511 93.6884L181.665 77.0108C182.232 76.7453 182.713 76.3248 183.052 75.7978C183.392 75.2707 183.576 74.6584 183.584 74.0311V1.97273C183.583 1.62478 183.49 1.28327 183.315 0.982639C183.141 0.682006 182.89 0.432874 182.589 0.260362C182.287 0.0878496 181.946 -0.00194441 181.599 3.19329e-05C181.252 0.00200828 180.911 0.0956856 180.612 0.271619Z" fill="#FFA513"/>
<path d="M154.962 24.5098L178.161 11.2456" stroke="#F2F2F2" stroke-miterlimit="10"/>
<path d="M154.962 29.8132L178.161 16.5378" stroke="#F2F2F2" stroke-miterlimit="10"/>
<path d="M154.396 36.4509L177.595 23.1755" stroke="#F2F2F2" stroke-miterlimit="10"/>
<path d="M154.396 41.7433L177.595 28.4679" stroke="#F2F2F2" stroke-miterlimit="10"/>
<path d="M156.614 64.5138L179.813 51.2495" stroke="#F2F2F2" stroke-miterlimit="10"/>
<path d="M156.614 69.8172L179.813 56.5419" stroke="#F2F2F2" stroke-miterlimit="10"/>
<path d="M156.048 76.4437L179.248 63.1794" stroke="#F2F2F2" stroke-miterlimit="10"/>
<path d="M156.048 81.7472L179.248 68.4718" stroke="#F2F2F2" stroke-miterlimit="10"/>
<path opacity="0.6" d="M67.8196 98.4915V172.151L75.7265 167.103V93.9108L67.8196 98.4915Z" fill="white"/>
<path d="M51.4517 148.391L74.6511 135.116" stroke="white" stroke-miterlimit="10"/>
<path d="M51.4517 153.683L74.6511 140.419" stroke="white" stroke-miterlimit="10"/>
<path d="M50.8857 160.321L74.0851 147.046" stroke="white" stroke-miterlimit="10"/>
<path d="M50.8857 165.625L74.0851 152.349" stroke="white" stroke-miterlimit="10"/>
<path d="M33.0649 170.416V182.169L36.1367 180.212V168.704C35.0832 169.238 34.0519 169.794 33.0649 170.416Z" fill="white"/>
<path d="M39.2087 162.901V178.778L42.2806 176.81V161.4L39.2087 162.901Z" fill="white"/>
<path d="M45.3633 154.706V175.509L48.4351 173.552V153.461C47.4259 153.895 46.4057 154.317 45.3633 154.706Z" fill="white"/>
<path opacity="0.32" d="M121.815 216.736L98.072 232.568L86.1396 225.486L110.06 211.555" fill="url(#paint2_linear)"/>
<path d="M84.6314 133.948L114.041 148.491C114.041 148.491 115.228 152.349 112.666 153.327C110.104 154.306 80.1401 138.106 80.1401 138.106" fill="#112E7C"/>
<path d="M100.678 142.487C98.9332 141.598 97.2143 140.66 95.5213 139.674C95.2217 139.023 94.8886 138.389 94.5233 137.773C94.2785 137.279 93.8862 136.875 93.4011 136.616C92.916 136.357 92.3624 136.256 91.8174 136.327C91.6039 136.368 91.4122 136.485 91.2768 136.655C91.1414 136.826 91.0714 137.039 91.0795 137.257C91.0875 137.474 91.1731 137.682 91.3206 137.842C91.4682 138.002 91.668 138.104 91.8839 138.129L92.0281 138.295C89.9322 138.395 86.1395 138.707 86.9934 140.775C86.9173 140.835 86.8468 140.902 86.7827 140.975C86.5678 141.237 86.4608 141.572 86.4835 141.911C86.5061 142.25 86.6568 142.567 86.9047 142.798C87.0913 142.979 87.3202 143.109 87.5703 143.177C87.8203 143.245 88.0834 143.248 88.3353 143.188C88.4984 143.517 88.7808 143.772 89.125 143.9C89.4691 144.028 89.849 144.02 90.1872 143.877L90.7084 143.721C90.6885 143.853 90.7011 143.987 90.745 144.112C90.7889 144.237 90.8628 144.35 90.9603 144.44C91.0577 144.53 91.1757 144.595 91.3039 144.628C91.4321 144.662 91.5665 144.664 91.6954 144.633L93.4254 144.299C97.3622 145.556 99.3251 146.012 100.8 147.023C101.41 147.446 100.8 147.602 100.8 147.023C100.869 146.934 100.92 146.832 100.948 146.722C100.976 146.613 100.982 146.499 100.964 146.387C100.946 146.276 100.906 146.169 100.845 146.074C100.785 145.978 100.705 145.897 100.611 145.834L100.445 145.711C100.538 145.643 100.615 145.556 100.673 145.456C100.731 145.356 100.767 145.246 100.781 145.131C100.794 145.017 100.784 144.9 100.751 144.79C100.718 144.679 100.663 144.577 100.589 144.488L100.379 144.244C100.571 144.211 100.748 144.119 100.886 143.98C101.023 143.842 101.115 143.664 101.148 143.472C101.181 143.279 101.153 143.081 101.069 142.904C100.985 142.728 100.848 142.582 100.678 142.487Z" fill="#FF7D09"/>
<path d="M120.85 203.16L121.804 216.747L120.063 218.215L118.177 217.725C118.177 217.725 118.421 214.134 117.756 213.345C117.091 212.555 115.971 216.458 115.327 216.436C114.684 216.413 107.01 214.356 106.899 213.411C106.755 212.155 108.474 210.721 111.734 211.51C115.261 212.366 115.871 208.386 116.436 204.572" fill="#F8997C"/>
<path d="M115.339 205.873C115.339 205.873 118.666 207.296 124.432 203.649C124.432 203.649 122.447 185.638 122.613 182.524C122.78 179.411 126.24 157.019 121.97 152.082C117.701 147.146 110.082 194.599 110.415 194.877" fill="#A1C3FC"/>
<path d="M118.133 213.867L117.811 213.345C117.568 213.111 117.267 212.947 116.94 212.869C116.613 212.791 116.27 212.802 115.948 212.9C115.028 213.334 115.161 216.558 115.161 216.558L118.355 215.357C118.39 214.85 118.314 214.342 118.133 213.867Z" fill="#9E005D"/>
<path d="M110.415 209.82L110.082 223.429L108.252 224.73L106.423 224.063C106.423 224.063 106.999 220.505 106.423 219.615C105.846 218.726 104.349 222.551 103.706 222.462C103.062 222.373 95.6213 219.604 95.5991 218.648C95.5991 217.381 97.4289 216.124 100.589 217.225C104.016 218.415 105.025 214.512 105.924 210.765" fill="#F8997C"/>
<path d="M106.7 220.171L106.434 219.615C106.213 219.359 105.929 219.165 105.609 219.056C105.289 218.947 104.946 218.925 104.615 218.993C103.65 219.337 103.506 222.551 103.506 222.551L106.833 221.661C106.896 221.161 106.851 220.653 106.7 220.171Z" fill="#9E005D"/>
<path d="M109.305 157.363C109.305 157.363 103.617 172.729 102.33 179.389C101.044 186.049 100.988 210.999 101.454 211.632C101.92 212.266 107.442 213.5 111.191 213.5C114.939 213.5 114.407 184.003 114.407 184.003C114.407 184.003 124.554 158.22 121.837 155.396C119.12 152.571 109.305 157.363 109.305 157.363Z" fill="#A1C3FC"/>
<path d="M109.073 157.653C114.229 159.287 120.783 157.33 123.933 152.883C123.334 145.611 122.092 133.592 120.229 131.758C117.534 129.156 111.701 132.87 109.594 136.494C108.367 139.278 107.319 142.138 106.456 145.056L98.5156 140.519L96.1091 146.178C96.1091 146.178 101.554 156.463 108.907 154.117L109.073 157.653Z" fill="#F8997C"/>
<path d="M114.041 144.322C114.041 144.241 114.009 144.163 113.952 144.106C113.895 144.048 113.817 144.016 113.736 144.016C113.655 144.016 113.578 144.048 113.521 144.106C113.463 144.163 113.431 144.241 113.431 144.322C113.607 146.672 113.2 149.029 112.245 151.182C111.822 152.065 111.182 152.826 110.384 153.392C109.587 153.958 108.658 154.311 107.687 154.417C107.299 154.417 107.299 155.04 107.687 155.029C108.724 154.928 109.72 154.571 110.585 153.988C111.451 153.406 112.158 152.618 112.644 151.693C113.941 149.492 114.052 146.79 114.041 144.322Z" fill="white"/>
<path d="M111.257 118.582C110.836 118.671 110.149 119.339 109.162 121.718C108.175 124.097 110.57 127.121 111.612 127.755C112.628 128.651 113.496 129.702 114.185 130.868C114.185 130.868 118.033 131.802 120.628 127.077C123.223 122.352 117.512 117.215 111.257 118.582Z" fill="#FFB468"/>
<path d="M110.171 121.218C110.171 121.218 108.23 129.123 111.091 130.924C113.952 132.725 117.812 127.933 118.178 126.021C118.544 124.109 116.459 119.961 110.171 121.218Z" fill="#FF7D09"/>
<path d="M110.171 121.218C110.171 121.218 109.694 126.376 112.389 127.511C115.083 128.645 115.106 130.268 115.106 130.268C115.106 130.268 119.985 127.655 120.495 125.342C121.005 123.03 113.908 119.15 110.171 121.218Z" fill="#FFB468"/>
<path d="M119.131 127.422C118.155 135.204 120.107 145.078 116.913 152.338C116.714 152.783 116.292 154.795 115.959 154.795L123.722 150.537C126.849 148.602 129.112 147.346 128.003 142.431C126.894 137.517 120.606 127.044 120.606 127.044L119.131 127.422Z" fill="#FFB468"/>
<path d="M107.254 141.231C106.775 143.285 106.405 145.363 106.145 147.457C106.145 147.846 106.699 147.846 106.755 147.457C107.018 145.419 107.388 143.396 107.864 141.397C107.942 140.997 107.354 140.83 107.254 141.231Z" fill="white"/>
<path d="M118.222 130.924L117.49 129.356C116.058 130.097 114.576 130.736 113.054 131.269C111.225 131.825 111.735 133.948 111.735 133.948C111.735 133.948 115.971 133.959 118.222 130.924Z" fill="#5FAD00"/>
<defs>
<linearGradient id="paint0_linear" x1="192.844" y1="214.279" x2="216.746" y2="172.805" gradientUnits="userSpaceOnUse">
<stop stop-opacity="0"/>
<stop offset="0.99" stop-color="#006837"/>
</linearGradient>
<linearGradient id="paint1_linear" x1="189.916" y1="176.976" x2="205.367" y2="158.548" gradientUnits="userSpaceOnUse">
<stop stop-opacity="0"/>
<stop offset="0.99" stop-color="#1A1A1A"/>
</linearGradient>
<linearGradient id="paint2_linear" x1="5437.78" y1="4832.7" x2="5575.79" y2="4425.31" gradientUnits="userSpaceOnUse">
<stop stop-opacity="0"/>
<stop offset="0.99" stop-color="#006837"/>
</linearGradient>
</defs>
</svg>
