<svg width="98" height="39" viewBox="0 0 98 39" fill="none" xmlns="http://www.w3.org/2000/svg">
<path d="M43.7402 35.4063V30.8087H47.0951V31.3515H44.3543V32.7584H46.9196V33.2985H44.3543V34.8635H47.2014V35.4063H43.7402Z" fill="#0A172B"/>
<path d="M50.1575 35.4063V34.9873C50.0601 35.1456 49.9216 35.275 49.7566 35.3622C49.5915 35.4493 49.4059 35.4909 49.2191 35.4827C48.9551 35.4835 48.697 35.4065 48.4774 35.2614C48.2449 35.1121 48.0605 34.9 47.9457 34.6501C47.8177 34.3652 47.755 34.0556 47.7623 33.7438C47.7568 33.4345 47.8137 33.1272 47.9298 32.8401C48.028 32.5854 48.2036 32.3672 48.4322 32.2156C48.6554 32.0725 48.916 31.9974 49.1818 31.9996C49.3621 31.9973 49.5404 32.0377 49.7018 32.1174C49.8631 32.1972 50.003 32.3139 50.1096 32.458V30.8087H50.6758V35.4063H50.1575ZM48.3578 33.7438C48.3301 34.0836 48.4242 34.4223 48.6236 34.7002C48.6995 34.798 48.7969 34.8776 48.9083 34.9328C49.0197 34.988 49.1423 35.0175 49.2669 35.019C49.3887 35.0197 49.5091 34.9928 49.6187 34.9403C49.7284 34.8877 49.8245 34.811 49.8996 34.716C50.0961 34.4487 50.1903 34.121 50.1654 33.7912C50.1933 33.4365 50.0997 33.0828 49.8996 32.7874C49.8226 32.6874 49.7231 32.6066 49.6092 32.5513C49.4952 32.496 49.3699 32.4677 49.243 32.4686C49.1205 32.4677 48.9995 32.4949 48.8893 32.5479C48.7791 32.6009 48.6828 32.6783 48.6076 32.7742C48.4175 33.0607 48.3295 33.402 48.3578 33.7438Z" fill="#0A172B"/>
<path d="M53.7891 35.4063V34.9162C53.6757 35.093 53.5183 35.238 53.3321 35.3372C53.1459 35.4364 52.9371 35.4865 52.7258 35.4827C52.5338 35.4833 52.3438 35.4447 52.1675 35.3694C52.0178 35.3091 51.8861 35.2121 51.7847 35.0875C51.6972 34.9609 51.6383 34.8171 51.6119 34.6659C51.5838 34.4917 51.5722 34.3153 51.5774 34.139V32.076H52.1463V33.9203C52.1392 34.1194 52.1508 34.3187 52.1808 34.5157C52.2108 34.6572 52.2922 34.7828 52.4094 34.8688C52.536 34.9546 52.6869 34.998 52.8401 34.9926C53.0093 34.9932 53.1755 34.9486 53.3212 34.8635C53.4635 34.7841 53.5749 34.6599 53.6376 34.5105C53.7085 34.3001 53.74 34.0787 53.7306 33.8571V32.0734H54.3022V35.4036L53.7891 35.4063Z" fill="#0A172B"/>
<path d="M57.3883 34.1863L57.9492 34.2574C57.9071 34.6047 57.7389 34.925 57.476 35.1585C57.2182 35.3772 56.8874 35.4927 56.5483 35.4826C56.3418 35.4905 56.136 35.455 55.9444 35.3782C55.7529 35.3014 55.58 35.1852 55.4371 35.0373C55.1377 34.6782 54.9883 34.219 55.0197 33.7542C55.0132 33.4299 55.0747 33.1078 55.2005 32.8083C55.3089 32.5516 55.502 32.3389 55.7481 32.205C55.9917 32.0696 56.2664 31.9988 56.5456 31.9995C56.8661 31.9816 57.1828 32.0747 57.4415 32.263C57.6862 32.4607 57.8458 32.7433 57.8881 33.0534L57.3351 33.1377C57.2993 32.9439 57.2003 32.7672 57.0534 32.6345C56.9188 32.5204 56.7466 32.4594 56.5695 32.4632C56.4371 32.4591 56.3055 32.4847 56.1844 32.5381C56.0633 32.5914 55.956 32.6712 55.8704 32.7715C55.6675 33.0517 55.5731 33.3949 55.6046 33.7384C55.5768 34.084 55.6707 34.4285 55.8704 34.7132C55.9524 34.8121 56.0561 34.891 56.1736 34.944C56.2911 34.997 56.4192 35.0226 56.5483 35.0189C56.7551 35.0251 56.9562 34.9514 57.1092 34.8133C57.273 34.6429 57.3717 34.4211 57.3883 34.1863Z" fill="#0A172B"/>
<path d="M60.6297 34.9954C60.4495 35.1553 60.2426 35.2828 60.0182 35.3721C59.8178 35.4472 59.6051 35.4847 59.3909 35.4828C59.0841 35.5034 58.7806 35.4094 58.5402 35.2193C58.4369 35.1233 58.3566 35.0057 58.3051 34.8749C58.2537 34.7442 58.2324 34.6037 58.2428 34.4637C58.2533 34.3237 58.2952 34.1879 58.3655 34.0661C58.4358 33.9442 58.5327 33.8396 58.6492 33.7597C58.7747 33.6768 58.913 33.6145 59.0586 33.5753C59.2256 33.5353 59.3953 33.5072 59.5663 33.491C59.9103 33.4583 60.2504 33.393 60.5818 33.296C60.5818 33.217 60.5818 33.1695 60.5818 33.1485C60.5912 33.0607 60.5818 32.9719 60.5543 32.8879C60.5269 32.804 60.4819 32.7267 60.4223 32.661C60.2354 32.5219 60.0041 32.4545 59.771 32.4713C59.5635 32.4552 59.3562 32.5041 59.1782 32.611C59.0298 32.7381 58.9302 32.9121 58.8964 33.1037L58.3382 33.0299C58.3751 32.8225 58.4607 32.6267 58.588 32.4582C58.7201 32.3011 58.8943 32.1842 59.0905 32.1209C59.336 32.038 59.5941 31.9979 59.8534 32.0024C60.0914 31.9954 60.3289 32.0293 60.5552 32.1025C60.7075 32.1544 60.8432 32.2453 60.9487 32.3659C61.0387 32.4769 61.0999 32.6081 61.1268 32.748C61.1512 32.9225 61.161 33.0988 61.156 33.2749V34.0258C61.1472 34.359 61.1587 34.6925 61.1906 35.0244C61.2173 35.1639 61.2667 35.2983 61.3368 35.4222H60.744C60.679 35.2884 60.6402 35.1435 60.6297 34.9954ZM60.5818 33.736C60.2804 33.8403 59.9684 33.9119 59.6514 33.9494C59.4817 33.966 59.3148 34.0032 59.1543 34.0601C59.0623 34.0984 58.9844 34.1637 58.931 34.2471C58.8781 34.3249 58.8503 34.4168 58.8512 34.5106C58.8497 34.582 58.8641 34.6528 58.8935 34.7179C58.923 34.7831 58.9666 34.841 59.0214 34.8874C59.1666 34.9968 59.3471 35.0502 59.5291 35.0375C59.7332 35.0411 59.9347 34.9921 60.1139 34.8953C60.2777 34.8062 60.4095 34.6691 60.4914 34.5027C60.5615 34.3232 60.5924 34.131 60.5818 33.9389V33.736Z" fill="#0A172B"/>
<path d="M63.2877 34.9004L63.3701 35.401C63.2287 35.4328 63.0844 35.4496 62.9394 35.4511C62.7781 35.4598 62.6172 35.428 62.4716 35.3589C62.3635 35.3011 62.279 35.208 62.2323 35.0954C62.1714 34.8787 62.1481 34.6533 62.1632 34.4288V32.5134H61.7432V32.076H62.1632V31.2487L62.7294 30.9115V32.076H63.301V32.5134H62.7294V34.4631C62.7231 34.5674 62.732 34.6722 62.756 34.774C62.7779 34.8184 62.812 34.8558 62.8544 34.882C62.9148 34.9137 62.9828 34.9283 63.0511 34.9241C63.1304 34.9217 63.2095 34.9138 63.2877 34.9004Z" fill="#0A172B"/>
<path d="M63.8506 31.4569V30.8087H64.4195V31.4569H63.8506ZM63.8506 35.4089V32.076H64.4195V35.4063L63.8506 35.4089Z" fill="#0A172B"/>
<path d="M65.079 33.7411C65.079 33.1246 65.2518 32.6662 65.5974 32.3711C65.893 32.1207 66.2721 31.9882 66.6607 31.9996C66.8707 31.9937 67.0796 32.0317 67.2738 32.1112C67.468 32.1906 67.6432 32.3097 67.7879 32.4606C67.9412 32.6279 68.0593 32.8238 68.135 33.0369C68.2108 33.25 68.2428 33.476 68.2292 33.7016C68.2453 34.0504 68.1779 34.398 68.0325 34.7159C67.9077 34.9592 67.7099 35.158 67.4662 35.285C67.2225 35.4199 66.9479 35.4907 66.6687 35.4906C66.457 35.4988 66.2459 35.463 66.049 35.3854C65.8521 35.3078 65.6738 35.1902 65.5256 35.04C65.3686 34.8633 65.2483 34.6576 65.1717 34.4347C65.095 34.2118 65.0636 33.9761 65.079 33.7411ZM65.6639 33.7411C65.6385 34.084 65.7385 34.4244 65.9457 34.7001C66.0337 34.8006 66.1426 34.8812 66.2648 34.9365C66.387 34.9917 66.5198 35.0203 66.6541 35.0203C66.7884 35.0203 66.9212 34.9917 67.0434 34.9365C67.1656 34.8812 67.2745 34.8006 67.3625 34.7001C67.571 34.419 67.671 34.0732 67.6443 33.7253C67.6692 33.389 67.5669 33.0556 67.3572 32.79C67.272 32.6879 67.1646 32.6062 67.0431 32.551C66.9216 32.4958 66.7891 32.4685 66.6554 32.4712C66.5209 32.4685 66.3874 32.4955 66.2647 32.5502C66.1419 32.6049 66.033 32.6859 65.9457 32.7873C65.7379 33.0609 65.6369 33.3996 65.6612 33.7411H65.6639Z" fill="#0A172B"/>
<path d="M68.8984 35.4064V32.0761H69.4115V32.5477C69.5258 32.3731 69.6839 32.2307 69.8702 32.1347C70.0566 32.0386 70.2649 31.9921 70.4748 31.9997C70.6658 31.9974 70.8552 32.0351 71.0304 32.1104C71.1822 32.1669 71.3149 32.2646 71.4132 32.3923C71.5015 32.5171 71.5622 32.6589 71.5913 32.8086C71.6178 32.9909 71.6285 33.1751 71.6232 33.3592V35.4064H71.0544V33.3803C71.0637 33.2019 71.0403 33.0234 70.9852 32.8533C70.9393 32.7412 70.8557 32.6481 70.7487 32.5899C70.6291 32.5191 70.4917 32.4834 70.3526 32.4871C70.1211 32.4832 69.8965 32.5649 69.7225 32.7163C69.5471 32.8691 69.4567 33.159 69.4567 33.5858V35.4037L68.8984 35.4064Z" fill="#0A172B"/>
<path d="M76.5048 34.1864L77.0657 34.2576C77.0245 34.6046 76.8572 34.9249 76.5952 35.1586C76.3371 35.3769 76.0065 35.4923 75.6674 35.4827C75.461 35.4907 75.2551 35.4551 75.0636 35.3783C74.872 35.3016 74.6991 35.1854 74.5562 35.0374C74.2568 34.6783 74.1075 34.2192 74.1389 33.7543C74.131 33.4299 74.1926 33.1076 74.3196 32.8085C74.4281 32.5518 74.6211 32.3391 74.8673 32.2051C75.1103 32.0686 75.3854 31.9977 75.6648 31.9996C75.9851 31.9822 76.3017 32.0753 76.5606 32.2631C76.8035 32.4624 76.9627 32.7442 77.0072 33.0535L76.4543 33.1378C76.4173 32.9445 76.3185 32.768 76.1725 32.6346C76.0373 32.5199 75.864 32.4589 75.686 32.4633C75.5536 32.4594 75.422 32.4851 75.301 32.5385C75.18 32.5918 75.0726 32.6715 74.9869 32.7716C74.7853 33.0524 74.691 33.3952 74.721 33.7385C74.6932 34.0842 74.7872 34.4287 74.9869 34.7134C75.0685 34.8119 75.1718 34.8906 75.2888 34.9436C75.4059 34.9965 75.5335 35.0223 75.6621 35.019C75.8689 35.0252 76.07 34.9515 76.223 34.8135C76.3888 34.644 76.4886 34.4219 76.5048 34.1864Z" fill="#0A172B"/>
<path d="M77.3418 33.7414C77.3418 33.1249 77.5146 32.6665 77.8602 32.3714C78.1555 32.1205 78.5347 31.988 78.9235 31.9999C79.1338 31.9923 79.3434 32.0287 79.5385 32.1068C79.7336 32.1849 79.91 32.3029 80.056 32.4531C80.2088 32.6206 80.3265 32.8166 80.4023 33.0296C80.478 33.2427 80.5103 33.4685 80.4973 33.694C80.5134 34.0428 80.446 34.3904 80.3005 34.7084C80.1736 34.95 79.9763 35.1483 79.7343 35.2775C79.4866 35.4145 79.2072 35.4853 78.9235 35.483C78.7118 35.4914 78.5006 35.4557 78.3037 35.3781C78.1068 35.3005 77.9285 35.1827 77.7804 35.0324C77.4682 34.6763 77.3105 34.2123 77.3418 33.7414ZM77.9266 33.7414C77.9 34.0844 78.0002 34.4253 78.2084 34.7005C78.2956 34.8023 78.4045 34.8837 78.5272 34.9388C78.6499 34.9939 78.7835 35.0214 78.9182 35.0193C79.0524 35.0214 79.1854 34.9936 79.3073 34.938C79.4293 34.8824 79.537 34.8003 79.6227 34.6978C79.8324 34.4173 79.9325 34.071 79.9044 33.723C79.9303 33.387 79.8289 33.0535 79.62 32.7877C79.5344 32.686 79.427 32.6047 79.3055 32.5495C79.1841 32.4943 79.0518 32.4668 78.9182 32.4689C78.7837 32.4662 78.6502 32.4932 78.5275 32.5479C78.4047 32.6026 78.2957 32.6836 78.2084 32.785C77.9997 33.059 77.8995 33.3992 77.9266 33.7414Z" fill="#0A172B"/>
<path d="M81.1621 35.4062V32.076H81.6725V32.5423C81.7816 32.3734 81.9323 32.2349 82.1105 32.14C82.2887 32.045 82.4884 31.9967 82.6907 31.9996C82.905 31.9915 83.1172 32.0446 83.3021 32.1524C83.4612 32.2539 83.5804 32.4064 83.6397 32.5845C83.7468 32.4059 83.899 32.2581 84.0812 32.1555C84.2635 32.053 84.4695 31.9992 84.6791 31.9996C84.8186 31.9887 84.9588 32.0065 85.091 32.0518C85.2232 32.0971 85.3445 32.169 85.4474 32.263C85.6445 32.4984 85.74 32.8014 85.7132 33.1061V35.3931H85.147V33.2853C85.1551 33.1209 85.1363 32.9563 85.0911 32.7979C85.0539 32.6973 84.9837 32.6119 84.8918 32.5555C84.7884 32.494 84.6694 32.4629 84.5488 32.4659C84.4399 32.4632 84.3316 32.4826 84.2306 32.5229C84.1296 32.5632 84.0379 32.6236 83.9613 32.7004C83.8742 32.8036 83.8084 32.9228 83.7678 33.0512C83.7272 33.1796 83.7126 33.3146 83.7248 33.4487V35.3825H83.1559V33.2511C83.1704 33.0526 83.1221 32.8546 83.0176 32.6846C82.9624 32.619 82.892 32.5677 82.8123 32.5352C82.7327 32.5026 82.6462 32.4897 82.5604 32.4975C82.4029 32.4974 82.2484 32.5403 82.1138 32.6214C81.978 32.7091 81.8752 32.8387 81.8214 32.9902C81.7504 33.2151 81.7189 33.4504 81.7283 33.6858V35.4141L81.1621 35.4062Z" fill="#0A172B"/>
<path d="M86.5605 36.6762V32.076H87.0922V32.5081C87.1992 32.3526 87.34 32.223 87.5043 32.1287C87.6767 32.038 87.8701 31.9935 88.0652 31.9996C88.335 31.9951 88.6 32.0713 88.8255 32.2183C89.0494 32.3724 89.2224 32.5887 89.3226 32.84C89.4364 33.1177 89.4934 33.4151 89.49 33.7148C89.4958 34.0318 89.4323 34.3464 89.304 34.6369C89.1969 34.8859 89.019 35.0985 88.7918 35.2487C88.5647 35.3989 88.2983 35.4802 88.0253 35.4826C87.8467 35.4856 87.6703 35.4439 87.5122 35.3614C87.3693 35.288 87.2434 35.1857 87.1427 35.0611V36.6762H86.5605ZM87.0763 33.7516C87.0499 34.0897 87.1439 34.4263 87.3421 34.7028C87.4169 34.7991 87.5132 34.8771 87.6234 34.9305C87.7336 34.984 87.8548 35.0115 87.9775 35.011C88.1033 35.0105 88.2274 34.9816 88.3403 34.9263C88.4532 34.8711 88.5518 34.791 88.6287 34.6922C88.8302 34.4034 88.9242 34.0541 88.8946 33.7042C88.9207 33.3653 88.8267 33.028 88.6287 32.7505C88.5553 32.6534 88.4602 32.5743 88.351 32.5195C88.2417 32.4647 88.1212 32.4355 87.9987 32.4343C87.8719 32.438 87.7478 32.4707 87.6357 32.5296C87.5237 32.5885 87.4269 32.6722 87.3527 32.7742C87.1471 33.0605 87.0493 33.4091 87.0763 33.7595V33.7516Z" fill="#0A172B"/>
<path d="M90.1582 35.4063V30.8087H90.7271V35.4063H90.1582Z" fill="#0A172B"/>
<path d="M93.9137 34.334L94.5039 34.4051C94.4266 34.7192 94.2438 34.9979 93.9855 35.1955C93.6619 35.4038 93.2779 35.5002 92.8932 35.4697C92.5086 35.4392 92.1449 35.2835 91.8588 35.0269C91.5542 34.6783 91.3996 34.2252 91.4282 33.7649C91.3951 33.2863 91.5515 32.8137 91.8642 32.4475C92.0091 32.2945 92.1854 32.174 92.3811 32.094C92.5769 32.0141 92.7876 31.9765 92.9993 31.9838C93.2075 31.979 93.4142 32.0192 93.6052 32.1016C93.7961 32.1839 93.9667 32.3065 94.1051 32.4607C94.4089 32.8169 94.5623 33.2756 94.5331 33.7412C94.5331 33.7728 94.5331 33.8228 94.5331 33.8913H92.029C92.0268 34.1995 92.1372 34.4981 92.34 34.7318C92.4301 34.8269 92.5394 34.9021 92.6607 34.9525C92.7821 35.0029 92.9129 35.0273 93.0445 35.0242C93.2348 35.0283 93.4214 34.9709 93.5761 34.8609C93.7384 34.7219 93.8558 34.5386 93.9137 34.334ZM92.0529 33.4224H93.9297C93.9253 33.1946 93.8501 32.9738 93.7144 32.79C93.6303 32.6854 93.523 32.6015 93.4008 32.5448C93.2786 32.4881 93.1448 32.4602 93.0099 32.4633C92.8874 32.461 92.7657 32.4832 92.6519 32.5285C92.5382 32.5737 92.4349 32.6412 92.348 32.7268C92.1625 32.913 92.0535 33.1609 92.0423 33.4224H92.0529Z" fill="#0A172B"/>
<path d="M94.8418 35.4063L96.07 33.6753L94.9322 32.076H95.6446L96.1603 32.8665C96.2587 33.0166 96.3358 33.1299 96.3969 33.2406C96.4873 33.1036 96.575 32.9771 96.6628 32.8717L97.229 32.0813H97.9095L96.7478 33.6621L97.9999 35.4248H97.2955L96.6069 34.3893L96.4235 34.11L95.5409 35.4274L94.8418 35.4063Z" fill="#0A172B"/>
<path d="M34.8427 28.8063V9.07239L17.4199 18.855V38.7127L34.8427 28.8063Z" fill="#F0CC0D"/>
<path d="M17.5 0L0 9.07246L17.4201 18.8551L34.8429 9.07246L17.5 0Z" fill="#FFEB3C"/>
<path d="M0 28.9723V9.07239L17.4201 18.8517V38.9999L0 28.9723Z" fill="#FFE600"/>
<path d="M48.2143 26.6644H45.1758V6.53003H48.2143V26.6644ZM64.4488 9.19371H61.1019V26.6644H58.0767V9.19371H54.7272V6.53003H64.4488V9.19371Z" fill="#2967C4"/>
<path d="M79.3491 26.6644H70.9248V6.53003H79.272V9.19371H73.9553V15.0717H78.525V17.6827H73.9633V24.006H79.3491V26.6644ZM96.3625 24.8201C96.3625 26.0496 95.7422 26.6644 94.5017 26.6644H88.1615C86.96 26.6644 86.3583 26.0496 86.3565 24.8201V8.38486C86.3565 7.15533 86.9582 6.54057 88.1615 6.54057H94.4964C95.7369 6.54057 96.3572 7.15533 96.3572 8.38486V13.0931H93.3267V9.11731H89.395V24.0798H93.3267V19.8458H96.3519L96.3625 24.8201Z" fill="#001C47"/>
</svg>
