<svg width="107" height="40" viewBox="0 0 107 40" fill="none" xmlns="http://www.w3.org/2000/svg">
<path d="M47.7568 36.1881V31.6176H51.4198V32.1571H48.4273V33.5558H51.2282V34.0927H48.4273V35.6485H51.5359V36.1881H47.7568Z" fill="#0F4599"/>
<path d="M54.7638 36.1881V35.7716C54.6575 35.9289 54.5063 36.0576 54.3261 36.1442C54.1459 36.2308 53.9432 36.2722 53.7392 36.264C53.4511 36.2649 53.1692 36.1883 52.9294 36.044C52.6756 35.8956 52.4742 35.6847 52.3489 35.4364C52.2091 35.1531 52.1407 34.8454 52.1487 34.5353C52.1427 34.2279 52.2048 33.9224 52.3315 33.637C52.4388 33.3838 52.6305 33.1669 52.8801 33.0162C53.1238 32.8739 53.4083 32.7992 53.6986 32.8014C53.8954 32.7991 54.0901 32.8393 54.2662 32.9186C54.4424 32.9978 54.5951 33.1139 54.7115 33.2572V31.6176H55.3298V36.1881H54.7638ZM52.7988 34.5353C52.7686 34.8732 52.8714 35.2099 53.0891 35.4861C53.172 35.5834 53.2783 35.6625 53.3999 35.7174C53.5216 35.7723 53.6555 35.8016 53.7915 35.803C53.9245 35.8038 54.0559 35.777 54.1756 35.7248C54.2953 35.6726 54.4002 35.5963 54.4823 35.5018C54.6968 35.2362 54.7997 34.9103 54.7725 34.5825C54.803 34.2299 54.7007 33.8783 54.4823 33.5846C54.3981 33.4852 54.2896 33.4049 54.1652 33.3499C54.0408 33.2949 53.9039 33.2667 53.7653 33.2677C53.6316 33.2668 53.4995 33.2938 53.3792 33.3465C53.2589 33.3992 53.1537 33.4762 53.0717 33.5715C52.864 33.8563 52.768 34.1956 52.7988 34.5353Z" fill="#0F4599"/>
<path d="M58.7283 36.1879V35.7008C58.6045 35.8765 58.4327 36.0206 58.2294 36.1193C58.0261 36.2179 57.7981 36.2677 57.5673 36.2639C57.3577 36.2645 57.1502 36.2262 56.9578 36.1513C56.7944 36.0914 56.6505 35.9949 56.5398 35.871C56.4443 35.7452 56.3799 35.6022 56.3512 35.4519C56.3204 35.2788 56.3078 35.1034 56.3134 34.9281V32.8773H56.9346V34.7107C56.9269 34.9086 56.9395 35.1068 56.9723 35.3026C57.0051 35.4433 57.0939 35.5682 57.2219 35.6536C57.3601 35.7389 57.5248 35.7821 57.6921 35.7767C57.8768 35.7773 58.0583 35.733 58.2175 35.6484C58.3728 35.5695 58.4944 35.4459 58.5629 35.2974C58.6403 35.0883 58.6747 34.8681 58.6644 34.6478V32.8746H59.2885V36.1853L58.7283 36.1879Z" fill="#0F4599"/>
<path d="M62.6584 34.9752L63.2709 35.0459C63.2248 35.3912 63.0412 35.7096 62.7542 35.9417C62.4727 36.1591 62.1116 36.2739 61.7413 36.2639C61.5158 36.2718 61.2911 36.2364 61.082 36.1601C60.8728 36.0838 60.684 35.9683 60.528 35.8212C60.2011 35.4642 60.0381 35.0078 60.0723 34.5457C60.0652 34.2233 60.1324 33.9031 60.2697 33.6054C60.3881 33.3502 60.5989 33.1387 60.8676 33.0056C61.1335 32.871 61.4335 32.8006 61.7384 32.8013C62.0882 32.7835 62.434 32.8761 62.7165 33.0632C62.9836 33.2598 63.1579 33.5407 63.2041 33.849L62.6004 33.9328C62.5612 33.7402 62.4531 33.5644 62.2927 33.4325C62.1458 33.3191 61.9578 33.2585 61.7645 33.2623C61.6199 33.2582 61.4761 33.2836 61.344 33.3367C61.2118 33.3897 61.0946 33.4691 61.0011 33.5687C60.7796 33.8473 60.6766 34.1885 60.7109 34.53C60.6805 34.8736 60.7831 35.216 61.0011 35.4991C61.0906 35.5973 61.2038 35.6758 61.3321 35.7285C61.4604 35.7811 61.6004 35.8066 61.7413 35.8029C61.967 35.809 62.1866 35.7358 62.3537 35.5986C62.5325 35.4291 62.6403 35.2087 62.6584 34.9752Z" fill="#0F4599"/>
<path d="M66.1969 35.7795C66.0002 35.9384 65.7743 36.0652 65.5293 36.1541C65.3105 36.2287 65.0783 36.266 64.8444 36.2641C64.5094 36.2845 64.178 36.1911 63.9156 36.0021C63.8028 35.9067 63.7151 35.7897 63.6589 35.6597C63.6027 35.5298 63.5795 35.3901 63.5909 35.251C63.6023 35.1118 63.6481 34.9768 63.7248 34.8557C63.8016 34.7346 63.9074 34.6305 64.0346 34.5511C64.1716 34.4687 64.3226 34.4067 64.4816 34.3678C64.6639 34.328 64.8492 34.3 65.0359 34.2839C65.4115 34.2515 65.7828 34.1866 66.1447 34.0901C66.1447 34.0115 66.1447 33.9644 66.1447 33.9434C66.1549 33.8562 66.1447 33.7679 66.1147 33.6845C66.0847 33.601 66.0356 33.5241 65.9705 33.4589C65.7665 33.3206 65.5139 33.2536 65.2594 33.2703C65.0329 33.2543 64.8065 33.3029 64.6122 33.4091C64.4501 33.5355 64.3414 33.7085 64.3045 33.8989L63.695 33.8256C63.7353 33.6195 63.8288 33.4248 63.9678 33.2572C64.112 33.1011 64.3022 32.9849 64.5164 32.922C64.7844 32.8395 65.0663 32.7996 65.3494 32.8041C65.6093 32.7972 65.8685 32.8308 66.1156 32.9036C66.2819 32.9553 66.4301 33.0456 66.5452 33.1655C66.6435 33.2759 66.7103 33.4063 66.7397 33.5453C66.7664 33.7188 66.7771 33.8941 66.7716 34.0692V34.8156C66.762 35.1469 66.7745 35.4784 66.8093 35.8083C66.8386 35.9471 66.8925 36.0806 66.969 36.2038H66.3217C66.2508 36.0708 66.2084 35.9268 66.1969 35.7795ZM66.1447 34.5275C65.8156 34.6312 65.4749 34.7024 65.1288 34.7397C64.9436 34.7562 64.7613 34.7932 64.586 34.8497C64.4857 34.8878 64.4006 34.9527 64.3422 35.0357C64.2845 35.113 64.2542 35.2043 64.2552 35.2976C64.2535 35.3685 64.2692 35.4389 64.3014 35.5037C64.3335 35.5685 64.3812 35.626 64.4409 35.6721C64.5995 35.7809 64.7965 35.834 64.9953 35.8214C65.2181 35.825 65.4382 35.7763 65.6338 35.68C65.8126 35.5914 65.9566 35.4551 66.046 35.2897C66.1226 35.1113 66.1562 34.9202 66.1447 34.7292V34.5275Z" fill="#0F4599"/>
<path d="M69.0989 35.685L69.1889 36.1827C69.0345 36.2143 68.8769 36.2309 68.7187 36.2324C68.5426 36.241 68.3669 36.2095 68.2078 36.1408C68.0899 36.0833 67.9976 35.9907 67.9466 35.8788C67.8802 35.6634 67.8547 35.4393 67.8711 35.2162V33.312H67.4126V32.8772H67.8711V32.0548L68.4894 31.7195V32.8772H69.1134V33.312H68.4894V35.2502C68.4825 35.354 68.4922 35.4581 68.5184 35.5593C68.5423 35.6035 68.5795 35.6407 68.6258 35.6667C68.6918 35.6982 68.7661 35.7127 68.8406 35.7086C68.9272 35.7061 69.0135 35.6983 69.0989 35.685Z" fill="#0F4599"/>
<path d="M69.714 32.2619V31.6176H70.3352V32.2619H69.714ZM69.714 36.1907V32.8774H70.3352V36.1881L69.714 36.1907Z" fill="#0F4599"/>
<path d="M71.0552 34.5325C71.0552 33.9196 71.2438 33.4639 71.6212 33.1705C71.9439 32.9216 72.3578 32.79 72.7822 32.8012C73.0114 32.7954 73.2395 32.8332 73.4515 32.9122C73.6636 32.9912 73.8548 33.1095 74.0128 33.2596C74.1802 33.4258 74.3091 33.6206 74.3918 33.8325C74.4746 34.0443 74.5095 34.269 74.4946 34.4932C74.5123 34.84 74.4387 35.1855 74.2798 35.5016C74.1437 35.7434 73.9276 35.9411 73.6616 36.0674C73.3954 36.2014 73.0957 36.2718 72.7909 36.2717C72.5597 36.2799 72.3292 36.2443 72.1142 36.1672C71.8992 36.09 71.7046 35.973 71.5428 35.8238C71.3713 35.6481 71.24 35.4436 71.1563 35.222C71.0727 35.0004 71.0383 34.7661 71.0552 34.5325ZM71.6937 34.5325C71.666 34.8734 71.7752 35.2118 72.0014 35.4859C72.0976 35.5858 72.2164 35.6659 72.3498 35.7209C72.4833 35.7758 72.6282 35.8042 72.7749 35.8042C72.9216 35.8042 73.0665 35.7758 73.2 35.7209C73.3334 35.6659 73.4522 35.5858 73.5484 35.4859C73.776 35.2064 73.8852 34.8626 73.8561 34.5168C73.8832 34.1825 73.7715 33.851 73.5426 33.587C73.4496 33.4855 73.3323 33.4043 73.1996 33.3494C73.067 33.2946 72.9223 33.2674 72.7763 33.2701C72.6294 33.2674 72.4837 33.2943 72.3497 33.3486C72.2157 33.403 72.0967 33.4835 72.0014 33.5844C71.7746 33.8563 71.6643 34.193 71.6908 34.5325H71.6937Z" fill="#0F4599"/>
<path d="M75.2259 36.188V32.8773H75.7861V33.3461C75.9109 33.1725 76.0834 33.031 76.2869 32.9356C76.4904 32.8401 76.7178 32.7938 76.947 32.8013C77.1556 32.799 77.3623 32.8365 77.5537 32.9114C77.7194 32.9675 77.8642 33.0647 77.9716 33.1916C78.068 33.3157 78.1343 33.4567 78.1661 33.6054C78.195 33.7867 78.2067 33.9698 78.2009 34.1529V36.188H77.5798V34.1738C77.59 33.9965 77.5645 33.819 77.5043 33.65C77.4541 33.5385 77.3629 33.446 77.246 33.388C77.1155 33.3177 76.9655 33.2822 76.8135 33.2859C76.5608 33.282 76.3155 33.3632 76.1256 33.5138C75.9341 33.6657 75.8354 33.9538 75.8354 34.3781V36.1854L75.2259 36.188Z" fill="#0F4599"/>
<path d="M83.5301 34.9754L84.1425 35.0461C84.0975 35.3911 83.9149 35.7095 83.6288 35.9418C83.347 36.1588 82.9861 36.2736 82.6158 36.264C82.3904 36.2719 82.1657 36.2366 81.9565 36.1603C81.7474 36.084 81.5586 35.9684 81.4026 35.8214C81.0757 35.4643 80.9126 35.0079 80.9469 34.5458C80.9383 34.2233 81.0056 33.9028 81.1443 33.6055C81.2627 33.3503 81.4734 33.1389 81.7422 33.0057C82.0076 32.87 82.3079 32.7995 82.6129 32.8014C82.9627 32.7841 83.3084 32.8766 83.5911 33.0633C83.8562 33.2615 84.03 33.5416 84.0787 33.8491L83.475 33.9329C83.4346 33.7407 83.3267 33.5653 83.1673 33.4326C83.0196 33.3186 82.8304 33.258 82.6361 33.2624C82.4916 33.2585 82.3479 33.284 82.2158 33.3371C82.0836 33.3901 81.9664 33.4693 81.8728 33.5688C81.6527 33.848 81.5498 34.1887 81.5825 34.5301C81.5522 34.8737 81.6548 35.2162 81.8728 35.4992C81.962 35.5971 82.0747 35.6754 82.2025 35.728C82.3302 35.7807 82.4696 35.8063 82.61 35.803C82.8358 35.8092 83.0554 35.7359 83.2225 35.5987C83.4034 35.4303 83.5124 35.2094 83.5301 34.9754Z" fill="#0F4599"/>
<path d="M84.4442 34.5328C84.4442 33.9199 84.6329 33.4642 85.0102 33.1709C85.3327 32.9215 85.7467 32.7898 86.1712 32.8015C86.4008 32.794 86.6296 32.8302 86.8427 32.9078C87.0557 32.9854 87.2483 33.1027 87.4077 33.252C87.5745 33.4186 87.7031 33.6134 87.7858 33.8252C87.8685 34.037 87.9038 34.2615 87.8895 34.4857C87.9071 34.8324 87.8335 35.178 87.6747 35.4941C87.5361 35.7343 87.3207 35.9314 87.0565 36.0598C86.786 36.1961 86.4809 36.2665 86.1712 36.2641C85.94 36.2725 85.7095 36.237 85.4945 36.1599C85.2794 36.0827 85.0848 35.9656 84.9231 35.8162C84.5822 35.4622 84.4101 35.0009 84.4442 34.5328ZM85.0828 34.5328C85.0538 34.8738 85.1631 35.2126 85.3905 35.4862C85.4857 35.5874 85.6045 35.6684 85.7385 35.7232C85.8725 35.778 86.0183 35.8053 86.1654 35.8032C86.312 35.8053 86.4572 35.7777 86.5903 35.7224C86.7234 35.6671 86.8411 35.5855 86.9346 35.4836C87.1636 35.2048 87.2729 34.8605 87.2422 34.5145C87.2705 34.1805 87.1598 33.849 86.9317 33.5847C86.8382 33.4837 86.7209 33.4028 86.5883 33.3479C86.4557 33.2931 86.3112 33.2657 86.1654 33.2678C86.0185 33.2651 85.8728 33.292 85.7388 33.3463C85.6048 33.4007 85.4858 33.4812 85.3905 33.5821C85.1626 33.8544 85.0531 34.1926 85.0828 34.5328Z" fill="#0F4599"/>
<path d="M88.6147 36.1879V32.8772H89.172V33.3408C89.2911 33.1729 89.4557 33.0352 89.6502 32.9408C89.8448 32.8464 90.0628 32.7984 90.2837 32.8013C90.5177 32.7933 90.7494 32.846 90.9512 32.9532C91.1249 33.0541 91.2551 33.2057 91.3198 33.3827C91.4368 33.2052 91.6029 33.0583 91.8019 32.9563C92.0009 32.8543 92.2259 32.8009 92.4547 32.8013C92.607 32.7904 92.7601 32.8081 92.9044 32.8532C93.0488 32.8982 93.1812 32.9697 93.2935 33.0632C93.5088 33.2972 93.6131 33.5983 93.5838 33.9013V36.1748H92.9655V34.0794C92.9744 33.916 92.9538 33.7523 92.9046 33.5949C92.8639 33.4949 92.7873 33.41 92.6869 33.3539C92.574 33.2927 92.4441 33.2619 92.3125 33.2648C92.1936 33.2621 92.0753 33.2814 91.965 33.3215C91.8547 33.3616 91.7547 33.4216 91.671 33.498C91.5759 33.6005 91.504 33.719 91.4597 33.8466C91.4154 33.9743 91.3994 34.1086 91.4127 34.2418V36.1643H90.7916V34.0454C90.8074 33.8481 90.7547 33.6512 90.6407 33.4822C90.5804 33.4171 90.5034 33.3661 90.4165 33.3337C90.3295 33.3013 90.2351 33.2884 90.1414 33.2963C89.9695 33.2962 89.8008 33.3388 89.6538 33.4194C89.5056 33.5066 89.3934 33.6355 89.3345 33.7861C89.2571 34.0096 89.2227 34.2435 89.233 34.4775V36.1957L88.6147 36.1879Z" fill="#0F4599"/>
<path d="M94.51 37.4504V32.8773H95.0905V33.3068C95.2073 33.1523 95.361 33.0234 95.5404 32.9297C95.7287 32.8395 95.9398 32.7953 96.1528 32.8013C96.4474 32.7969 96.7367 32.8726 96.9829 33.0187C97.2274 33.172 97.4163 33.387 97.5257 33.6369C97.65 33.9129 97.7122 34.2085 97.7085 34.5064C97.7148 34.8217 97.6455 35.1344 97.5054 35.4232C97.3885 35.6707 97.1942 35.882 96.9462 36.0314C96.6982 36.1807 96.4074 36.2615 96.1093 36.2639C95.9143 36.2669 95.7216 36.2254 95.5491 36.1434C95.393 36.0704 95.2556 35.9687 95.1457 35.8449V37.4504H94.51ZM95.0731 34.5431C95.0443 34.8792 95.147 35.2138 95.3633 35.4886C95.4451 35.5844 95.5502 35.6619 95.6705 35.7151C95.7908 35.7682 95.9231 35.7956 96.057 35.7951C96.1945 35.7946 96.33 35.7658 96.4532 35.7109C96.5765 35.656 96.6842 35.5764 96.7681 35.4782C96.9881 35.191 97.0907 34.8438 97.0584 34.496C97.0869 34.1591 96.9843 33.8237 96.7681 33.5478C96.6879 33.4513 96.5841 33.3727 96.4649 33.3182C96.3456 33.2637 96.214 33.2347 96.0803 33.2335C95.9418 33.2372 95.8063 33.2697 95.6839 33.3282C95.5616 33.3868 95.4559 33.47 95.375 33.5714C95.1504 33.856 95.0436 34.2026 95.0731 34.551V34.5431Z" fill="#0F4599"/>
<path d="M98.437 36.1881V31.6176H99.0581V36.1881H98.437Z" fill="#0F4599"/>
<path d="M102.538 35.1219L103.183 35.1926C103.098 35.5049 102.899 35.782 102.617 35.9784C102.263 36.1855 101.844 36.2813 101.424 36.251C101.004 36.2207 100.607 36.0659 100.295 35.8108C99.962 35.4642 99.7932 35.0138 99.8244 34.5562C99.7883 34.0804 99.959 33.6106 100.3 33.2466C100.459 33.0945 100.651 32.9747 100.865 32.8952C101.079 32.8157 101.309 32.7783 101.54 32.7856C101.767 32.7808 101.993 32.8208 102.201 32.9026C102.41 32.9845 102.596 33.1063 102.747 33.2596C103.079 33.6138 103.246 34.0698 103.214 34.5326C103.214 34.564 103.214 34.6138 103.214 34.6819H100.48C100.478 34.9883 100.599 35.2851 100.82 35.5174C100.918 35.6119 101.038 35.6867 101.17 35.7368C101.303 35.7869 101.445 35.8112 101.589 35.8081C101.797 35.8121 102.001 35.7551 102.17 35.6457C102.347 35.5076 102.475 35.3254 102.538 35.1219ZM102.556 34.2157C102.551 33.9893 102.469 33.7698 102.321 33.587C102.229 33.483 102.112 33.3996 101.978 33.3433C101.845 33.2869 101.699 33.2592 101.551 33.2623C101.418 33.26 101.285 33.282 101.161 33.327C101.036 33.372 100.924 33.4391 100.829 33.5242C100.626 33.7093 100.507 33.9558 100.495 34.2157H102.556Z" fill="#0F4599"/>
<path d="M103.551 36.188L104.892 34.4671L103.65 32.8773H104.428L104.991 33.6631C105.098 33.8123 105.183 33.925 105.249 34.035C105.348 33.8988 105.444 33.7731 105.54 33.6683L106.158 32.8825H106.901L105.632 34.4541L107 36.2063H106.23L105.479 35.177L105.278 34.8993L104.315 36.2089L103.551 36.188Z" fill="#0F4599"/>
<path d="M38.0433 29.6326V10.0148L19.0205 19.7399V39.4808L38.0433 29.6326Z" fill="#F0CC0D"/>
<path d="M19.0199 0L0 10.0132L19.0199 19.7383L38.0428 10.0132L19.0199 0Z" fill="#FFEB3C"/>
<path d="M0 29.7976V10.0148L19.0199 19.8368V39.7663L0 29.7976Z" fill="#FFE600"/>
<path d="M52.6417 27.5017H49.3242V7.48572H52.6417V27.5017ZM70.3672 10.1337H66.713V27.5017H63.4099V10.1337H59.7528V7.48572H70.3672V10.1337Z" fill="#4987E3"/>
<path d="M86.6364 27.5017H77.4385V7.48572H86.5523V10.1337H80.7473V15.9772H85.7367V18.5728H80.756V24.8589H86.6364V27.5017ZM105.212 25.6682C105.212 26.8905 104.535 27.5017 103.181 27.5017H96.2582C94.9462 27.5017 94.2893 26.8905 94.2874 25.6682V9.32964C94.2874 8.10734 94.9443 7.49619 96.2582 7.49619H103.175C104.529 7.49619 105.207 8.10734 105.207 9.32964V14.0102H101.898V10.0578H97.6049V24.9322H101.898V20.7232H105.201L105.212 25.6682Z" fill="#094FB7"/>
</svg>
